<svg width="27" height="27" viewBox="0 0 27 27" fill="none" xmlns="http://www.w3.org/2000/svg">
<path d="M8.37158 14.4112C8.0849 14.4957 7.97674 14.7236 7.65092 15.1157C7.51536 15.2787 7.59454 15.3582 7.67665 15.4307C8.14958 15.8492 8.2673 15.8232 8.73988 15.2064C8.82454 15.0808 8.91818 14.9716 8.97469 14.8474C9.11707 14.534 8.85515 14.3414 9.21164 14.2237C9.30808 14.1917 9.42592 14.1244 9.47879 14.0394C9.84343 13.4556 9.83589 13.457 9.35529 13.0937C8.93887 12.7794 8.89096 12.4878 8.59696 12.6889C8.21812 12.948 8.03913 12.9956 7.9913 13.2351C7.94859 13.4493 7.7942 13.5492 7.60613 13.4797C7.45541 13.4243 7.43836 13.4571 6.6654 13.9837C6.52864 14.0768 6.47536 14.1944 6.58125 14.3196C6.79853 14.5764 7.08736 14.9643 7.3097 14.7597C7.56134 14.5284 7.85074 14.3174 7.88399 13.92C7.8995 13.7343 8.1464 13.5857 8.35504 13.5986C8.72359 13.6219 8.943 14.243 8.37158 14.4112Z" fill="#191919"/>
<path d="M6.13544 11.9456C5.39992 12.5438 5.25545 12.6873 5.46482 12.9139C5.84923 13.33 5.91843 13.6752 6.16282 13.3676C6.57622 12.8473 6.80385 12.6113 6.65999 12.3203C6.58839 12.1754 6.74424 11.9989 6.92431 12.0196C7.14392 12.0447 7.21634 11.9392 7.64545 11.3484C7.73479 11.2253 7.72108 11.1237 7.63583 11.0119C7.00819 10.1885 7.24873 10.029 6.32443 10.5597C6.1432 10.6636 6.3023 10.9976 5.93756 10.9506C5.67021 10.9165 5.65121 10.9496 4.83733 11.3731C4.69534 11.4468 4.67417 11.5458 4.7294 11.6865C4.98282 12.3311 5.08114 12.358 5.65047 11.8865C5.87114 11.7037 6.12221 11.5498 6.23368 11.2475C6.25406 11.1922 6.39683 11.1261 6.45963 11.1409C6.63911 11.1828 6.74232 11.3231 6.72773 11.5271C6.70457 11.8544 6.39275 11.7362 6.13544 11.9456Z" fill="#191919"/>
<path d="M5.22871 9.51399C5.15686 9.83519 4.87784 9.62281 4.60188 9.75439C3.80033 10.1378 3.65521 10.2368 3.8174 10.5232C4.11974 11.057 4.13367 11.4248 4.41249 11.1903C4.89015 10.7889 5.13628 10.6242 5.04379 10.2898C4.99754 10.1226 5.17254 9.99255 5.34066 10.0679C5.49451 10.1366 5.59712 10.0825 5.70299 9.99196C6.19387 9.57244 6.28538 9.52128 6.16936 9.27167C5.70784 8.27762 5.95159 8.16707 4.99102 8.42001C4.80311 8.46931 4.90335 8.85292 4.56384 8.6956C4.31462 8.58037 4.29075 8.60819 3.45373 8.78612C3.30782 8.81714 3.2724 8.91009 3.30367 9.0684C3.4471 9.79249 3.53665 9.84931 4.14939 9.54885C4.38681 9.43222 4.64903 9.35378 4.80076 9.08409C4.82833 9.03514 4.97445 9.01173 5.03172 9.04553C5.19668 9.14144 5.27346 9.31371 5.22871 9.51399Z" fill="#191919"/>
<path d="M11.0952 15.8513C10.9089 15.9301 10.8167 16.1852 10.3021 16.9194C10.205 17.0578 10.2245 17.1365 10.3519 17.1936C11.1014 17.5313 11.076 17.4937 11.3905 16.7986C11.7305 16.0465 11.7733 15.9844 11.6657 15.8238C11.5981 15.7232 11.6976 15.6303 11.8168 15.5753C11.9654 15.5074 12.1847 14.9377 12.1106 14.8071C12.0324 14.669 11.6873 14.5858 11.1931 14.3336C11.0669 14.269 10.9752 14.2739 10.8814 14.4116C10.7581 14.5933 10.5479 14.7242 10.5634 14.9869C10.5682 15.0654 10.1504 15.2554 10.069 15.3318C9.77826 15.6036 9.50499 15.897 9.21485 16.1699C8.98879 16.3823 9.12296 16.4867 9.29885 16.6161C9.77228 16.9645 9.84284 16.9427 10.3067 16.2536C10.3217 16.2583 10.3364 16.2632 10.3517 16.2682C10.4477 16.0143 10.5538 15.7628 10.6375 15.5061C10.7703 15.0984 11.2933 15.1215 11.3406 15.4857C11.3654 15.6701 11.2649 15.7792 11.0952 15.8513Z" fill="#191919"/>
<path d="M11.506 5.70768C11.493 5.6947 11.4805 5.68168 11.4675 5.6687C11.7852 4.99288 11.8066 5.00531 11.4425 4.83803C10.9709 4.62161 10.9363 4.64053 10.7429 5.26897C10.5203 5.99163 10.5245 6.10344 10.5744 6.2611C10.6285 6.43147 10.5963 6.53889 10.4242 6.62808C10.2426 6.72214 10.1701 7.01035 10.138 7.12058C9.89104 7.9702 10.1027 7.61952 10.8252 8.15039C10.9643 8.25279 11.0862 8.21714 11.2118 8.05278C11.726 7.38131 11.7278 7.41733 11.7131 7.15376C11.6982 6.88849 11.8314 6.73662 12.0585 6.74179C12.2748 6.7471 12.343 6.68448 12.923 5.93246C13.0464 5.77249 13.0306 5.64789 12.8891 5.56991C12.5871 5.40308 12.2481 5.10682 12.0833 5.3672C11.1876 6.78247 11.5326 6.47669 11.4311 6.73208C11.3884 6.83934 11.2829 7.02242 11.2459 7.01694C10.4352 6.90264 10.999 6.36908 11.506 5.70768Z" fill="#191919"/>
<path d="M12.8083 8.60121C12.8866 8.36513 13.0205 8.19487 13.2639 8.16085C13.4586 8.13341 14.1491 7.53763 14.1369 7.36C14.122 7.14132 13.9892 6.95013 13.8707 6.78201C13.8056 6.68943 13.6725 6.63209 13.5542 6.63109C13.4861 6.63075 13.2615 6.99075 13.1081 7.21819C13.1061 7.21692 13.1046 7.2156 13.1025 7.21433C12.794 7.67243 12.7003 7.75396 12.7775 7.94568C12.8433 8.10936 12.7059 8.27985 12.5495 8.30054C12.3398 8.32811 12.28 8.47066 12.141 8.68474C11.692 9.37678 11.9053 9.09487 12.3624 10.1031C12.4267 10.2448 12.5233 10.2935 12.6814 10.2021C13.1805 9.9128 13.2908 9.85109 13.3328 9.66482C13.4354 9.21004 13.6995 9.52645 13.9514 9.34196C14.1691 9.18258 14.373 8.99418 14.5835 8.81946C14.7495 8.68154 14.788 8.52345 14.7586 8.34243C14.6575 7.72595 14.5284 7.69008 14.0284 8.14718C13.7977 8.35823 13.6071 8.48619 13.5518 8.69422C13.3607 9.41849 12.6582 9.05571 12.8083 8.60121Z" fill="#191919"/>
<path d="M8.62601 5.20782C8.74705 4.96951 8.92176 4.56365 8.98945 4.26954C9.12396 3.68534 9.12396 3.68534 8.60857 3.61436C8.12508 3.54751 8.10335 3.56926 8.12218 4.11095C8.1321 4.3915 8.10521 4.69648 8.31949 4.95912C8.43645 5.10251 8.42736 5.28266 8.28702 5.459C8.21581 5.54864 8.17539 5.66846 8.13201 5.77774C8.11337 5.82498 8.12342 5.87938 8.11804 5.93083C8.01228 6.94511 8.43865 6.61423 8.87686 6.95086C9.04335 7.07886 9.16583 7.02199 9.22734 6.87933C9.67913 6.06147 9.7651 5.97312 9.65047 5.79203C9.57553 5.67385 9.67292 5.52715 9.81482 5.4995C10.0295 5.45777 10.0022 5.36441 10.4046 4.48682C10.4839 4.31364 10.4464 4.21559 10.3175 4.14018C9.88828 3.8888 9.4849 3.54933 9.31204 5.41838C9.28733 5.68765 9.00667 5.88983 8.76735 5.79653C8.57558 5.72214 8.51621 5.42365 8.62601 5.20782Z" fill="#191919"/>
<path d="M5.56892 6.42502C5.47414 6.67629 5.61873 6.68545 5.7307 6.73543C5.85691 6.79153 5.98556 6.90648 6.10814 6.88574C6.20587 6.86917 6.29413 6.68637 6.38847 6.5794C6.71096 6.21411 6.70041 6.25998 6.40863 5.60715C6.28909 5.68726 6.20614 5.75283 6.11666 5.80048C5.87735 5.92711 5.66408 5.77451 5.66543 5.50649C5.66678 5.21673 5.65438 5.14386 4.96339 4.06884C4.72791 3.70228 4.63031 3.89755 3.87155 4.82616C3.75497 4.96875 3.77177 5.09159 3.90108 5.18645C4.87404 5.89826 4.88311 5.95922 5.2548 5.9614C5.54853 5.96305 5.68223 6.12482 5.56892 6.42502Z" fill="#191919"/>
<path d="M3.60096 6.12286C3.42966 6.03781 3.30163 6.1004 3.27328 6.31401C3.14269 7.29857 3.10245 7.51606 3.39462 7.57569C4.65887 7.83391 4.64778 7.8242 4.74883 7.72892C5.01365 7.47893 4.98879 7.84928 5.21411 7.89268C5.45085 7.93815 5.69381 7.96204 5.94245 7.99516C6.07083 7.17505 6.16768 7.10208 5.80976 6.92649C5.68285 6.86394 5.53386 6.83502 5.38879 6.82278C5.35727 6.82005 5.31437 6.97108 5.2542 7.01371C4.89782 7.26659 4.8949 7.0971 4.78577 6.91819C4.61462 6.6372 4.99098 6.81412 3.60096 6.12286Z" fill="#191919"/>
<path d="M6.76061 5.28315C6.57973 5.58185 6.45974 5.46125 6.79145 6.14167C6.83124 6.2232 7.23706 6.10005 7.48802 6.07797C7.63259 6.06539 7.69279 5.99736 7.66802 5.86487C7.61824 5.60077 7.56401 5.33752 7.49302 5.0813C7.44491 4.90715 7.0453 4.86246 7.22782 4.51538C7.32195 4.33615 7.30698 4.181 7.25946 4.01584C7.05604 3.30697 7.08131 3.00746 6.70696 3.06812C5.96948 3.18815 5.68897 3.2246 5.81969 3.50034C6.41808 4.7607 6.40095 4.7621 6.61919 4.79665C6.89912 4.84183 6.96786 5.03778 6.76061 5.28315Z" fill="#191919"/>
<path d="M22.393 20.5547C22.3673 20.865 22.4876 20.9164 23.1732 21.6905C23.4879 22.0454 23.67 21.6885 24.4188 20.6244C24.5464 20.4433 24.4808 20.3217 24.324 20.2546C23.1273 19.7435 23.1744 19.7483 22.9497 19.8427C22.6092 19.9855 22.4452 19.8782 22.4443 19.5155C22.4435 19.2959 22.2333 19.2891 21.8101 19.1734C21.4443 19.95 21.2829 19.5552 21.7825 20.3028C21.861 20.2683 21.9251 20.235 21.9911 20.2123C22.2818 20.1117 22.4191 20.2416 22.393 20.5547Z" fill="#191919"/>
<path d="M14.3762 10.6739C14.3913 10.5679 14.5442 10.3761 14.6282 10.3655C14.9749 10.3224 15.2304 10.0553 15.5225 9.88168C15.7606 9.74017 15.6436 9.60158 15.481 9.15317C15.3756 8.86307 15.2363 9.10765 14.6975 9.70874C14.656 9.90656 14.6413 10.2381 14.4434 10.2045C14.1788 10.1594 14.0407 10.3743 13.8684 10.5327C13.3698 10.99 13.7404 11.0956 13.7125 11.5147C13.6952 11.7761 13.7985 11.8366 14.0284 11.7515C14.1659 11.7004 14.3097 11.6839 14.4451 11.6262C14.5239 11.5925 14.5869 11.4978 14.6651 11.4503C14.9676 11.2667 15.0435 11.3953 15.1983 11.362C16.1705 11.1532 15.9801 10.2041 15.6331 10.3809C15.34 10.5303 15.0274 10.6335 14.8009 10.942C14.7506 11.0102 14.558 11.0649 14.5181 11.0257C14.4345 10.9434 14.3588 10.7964 14.3762 10.6739Z" fill="#191919"/>
<path d="M20.515 20.8797C20.4072 20.3813 20.264 19.8715 19.5878 19.828C19.5789 20.1578 19.4255 20.5182 19.578 20.8597C19.6038 20.9173 19.6059 21.0273 19.5702 21.0771C19.3979 21.317 19.2566 22.1326 19.3809 22.345C19.461 22.482 19.5126 22.4945 20.9101 22.6449C21.0708 22.6623 21.1751 22.5391 21.1281 22.3994C21.0006 22.0178 20.9462 21.5716 20.4977 21.4353C20.411 21.4091 20.3183 21.2906 20.3127 21.1967C20.3081 21.1179 20.4251 21.0123 20.515 20.8797Z" fill="#191919"/>
<path d="M22.6875 17.7181C22.7838 17.6923 23.0129 17.9404 23.1398 17.9383C24.7697 17.9125 24.7654 17.9718 24.0055 16.6503C23.891 16.4509 23.721 16.3759 23.4747 16.4954C22.2505 17.0894 22.9251 16.6774 22.4934 17.0735C22.4364 17.1258 22.3506 17.2091 22.305 17.1982C21.9251 17.1045 21.6668 17.4541 21.3508 17.5479C21.5436 18.1727 22.0177 18.1089 22.4637 18.0306C22.5484 17.9045 22.6098 17.739 22.6875 17.7181Z" fill="#191919"/>
<path d="M24.4549 19.831C24.6247 19.8797 24.728 19.8193 24.7336 19.6075C24.7547 18.822 24.8579 18.4748 24.4553 18.4529C23.4885 18.3999 23.1804 18.3645 23.1324 18.4331C22.9402 18.7055 22.8537 18.531 22.6774 18.448C22.4417 18.3372 22.1283 18.3755 21.8088 18.3465C21.8457 18.9141 21.819 19.0327 21.9761 19.0862C22.1266 19.1377 22.4649 19.2468 22.5854 19.1426C22.8456 18.9172 23.0637 18.9574 23.1944 19.2247C23.3653 19.5743 23.6075 19.5875 24.4549 19.831Z" fill="#191919"/>
<path d="M21.606 15.8617C21.889 15.6997 22.1446 15.4803 22.4239 15.2759C22.3694 15.1979 22.3618 15.18 22.3486 15.1691C21.7585 14.6908 21.9808 14.6923 20.3876 16.6256C20.2584 16.7826 20.2799 16.8735 20.4258 16.9898C20.914 17.3788 20.8969 17.3622 21.4624 17.0304C23.1127 16.0623 23.6178 16.1746 23.1791 15.7925C22.8944 15.5444 22.7849 15.3466 22.5032 15.5977C22.3069 15.7731 22.0533 15.8841 22.0078 16.2066C21.9494 16.6207 21.3895 16.6246 21.305 16.2188C21.2654 16.0277 21.4447 15.9544 21.606 15.8617Z" fill="#191919"/>
<path d="M15.2642 19.6031C15.1167 19.7228 15.0851 19.8127 15.2408 19.8974C15.3957 19.9818 15.6189 20.1436 15.7212 20.0844C15.9967 19.9244 16.3467 19.7888 16.3991 19.37C16.408 19.2983 16.5455 19.1656 16.5877 19.1762C17.2997 19.3565 16.5533 19.8487 15.9779 20.344C16.0111 20.3991 16.0172 20.4188 16.0301 20.4295C16.6178 20.9105 16.5297 20.9106 17.6907 18.8611C17.8985 18.4943 17.5672 18.4962 17.3674 18.2956C16.9921 17.9198 17.2904 17.9599 15.2642 19.6031Z" fill="#191919"/>
<path d="M18.4658 20.8868C18.278 21.0846 18.1467 21.3394 18.0014 21.5553C18.0386 21.6102 18.045 21.6307 18.0584 21.6377C18.708 21.9605 18.6071 22.0049 19.2635 19.9071C19.331 19.6912 19.2851 19.5471 19.077 19.4605C18.2902 19.1329 18.8001 18.6035 17.0935 21.1385C17.2346 21.2114 17.4032 21.3274 17.5918 21.3879C17.7628 21.4425 18.1647 20.9534 18.1257 20.729C18.0441 20.26 18.4915 20.3699 18.5985 20.5131C18.7059 20.656 18.5878 20.7586 18.4658 20.8868Z" fill="#191919"/>
<path d="M20.4216 14.0542C19.6421 13.7834 19.8802 13.6631 18.7347 15.765C18.6351 15.9479 18.6915 16.0414 18.8682 16.0967C19.0708 16.1599 19.2795 16.3419 19.4587 16.2977C19.6405 16.2531 19.7816 15.9858 19.9539 15.8322C20.9516 14.9435 21.0332 14.9213 21.4111 14.5357C21.134 14.4389 20.9204 14.2982 20.7001 14.3059C20.4691 14.3142 20.1116 14.882 20.0783 15.132C20.0677 15.2118 19.957 15.3537 19.9121 15.3493C19.8002 15.338 19.669 15.2845 19.6061 15.1985C19.4849 15.0334 19.8546 14.6868 20.4216 14.0542Z" fill="#191919"/>
<path d="M21.3527 21.2702C21.2544 21.5116 21.33 21.6176 21.6201 22.2053C21.8265 22.6238 21.9126 22.6542 22.3868 22.4803C23.1993 22.1823 23.0061 22.2105 22.3218 21.2807C22.195 21.1086 22.06 20.9949 21.8035 21.053C21.577 21.1039 21.4763 20.8683 21.5926 20.6227C21.6796 20.4388 21.4981 19.9123 21.3212 19.894C21.2286 19.8842 21.1187 19.9612 21.015 19.99C20.9116 20.0191 20.8072 20.0366 20.6207 20.0777C20.8343 20.4462 20.8444 20.8891 21.2362 21.0647C21.299 21.0928 21.3736 21.2186 21.3527 21.2702Z" fill="#191919"/>
<path d="M8.71966 8.399C8.7403 8.48122 8.73386 8.67164 8.82162 8.75285C8.96232 8.88367 9.01718 8.98849 8.93512 9.20109C8.72757 9.73926 9.48704 9.86003 9.54493 9.28706C9.56442 9.09323 9.65882 9.00433 9.83672 8.95315C10.3893 8.79441 10.1707 8.04729 9.66444 8.34896C9.49462 8.45015 9.41019 8.40683 9.31098 8.27584C9.16473 8.08186 8.92164 8.10767 8.71966 8.399Z" fill="#191919"/>
<path d="M7.0185 8.56807C7.03913 8.65029 7.03269 8.84072 7.12045 8.92193C7.26085 9.05248 7.31602 9.15756 7.23395 9.37017C7.02641 9.90833 7.78588 10.0291 7.84377 9.45614C7.86326 9.26231 7.95766 9.1734 8.13556 9.12222C8.68812 8.96349 8.4695 8.21637 7.96328 8.51803C7.79345 8.61922 7.70902 8.57591 7.60981 8.44491C7.463 8.25097 7.22048 8.27675 7.0185 8.56807Z" fill="#191919"/>
<path d="M13.8487 13.6447C13.6936 13.5097 13.7079 13.3792 13.777 13.1796C13.8238 13.0447 13.7723 12.8834 13.768 12.7971C13.5091 12.6362 13.2744 12.734 13.2117 12.9806C13.153 13.2126 13.065 13.3347 12.8254 13.3667C12.3278 13.4332 12.4779 14.2427 12.9404 14.0012C13.1476 13.8931 13.2465 13.9416 13.3492 14.1181C13.5801 14.5135 14.1979 13.9493 13.8487 13.6447Z" fill="#191919"/>
<path d="M12.0247 13.2012C12.0064 13.1194 12.0167 12.9329 11.9329 12.843C11.803 12.7036 11.7852 12.5926 11.8765 12.4034C12.14 11.8582 11.3724 11.7044 11.2846 12.2516C11.2532 12.4488 11.1552 12.5292 10.9741 12.5628C10.4009 12.6689 10.5625 13.437 11.0767 13.1927C11.2483 13.1112 11.3318 13.1435 11.4205 13.2913C11.5552 13.516 11.8094 13.5041 12.0247 13.2012Z" fill="#191919"/>
<path d="M6.61418 7.1276C6.79501 7.30209 6.75274 7.45845 6.64601 7.6738C6.55578 7.85645 6.61693 8.03144 6.78764 8.07729C6.90578 8.10935 7.05742 8.04521 7.17228 8.02724C7.28873 7.70171 7.22516 7.60198 7.6224 7.48984C8.1732 7.33433 7.96933 6.65739 7.5496 6.83989C7.34317 6.92964 7.2406 6.88949 7.1497 6.70008C6.94996 6.28431 6.31186 6.83543 6.61418 7.1276Z" fill="#191919"/>
<path d="M18.9154 18.0002C18.9124 17.8296 18.9717 17.739 19.1269 17.6696C19.379 17.5568 19.4644 17.3609 19.365 17.1757C19.2688 16.996 19.1026 16.9916 18.8714 17.1259C18.7792 17.1797 18.657 17.1716 18.6224 17.1778C18.3379 16.9734 18.1542 16.9908 18.0431 17.1785C17.7998 17.59 18.3229 17.5972 18.3068 17.98C18.2952 18.2566 18.3757 18.4162 18.5867 18.4136C18.7907 18.4113 18.9201 18.2625 18.9154 18.0002Z" fill="#191919"/>
<path d="M9.90579 11.1867C9.74063 11.036 9.73236 10.8968 9.84221 10.6731C10.0706 10.2072 9.33592 10.0256 9.24401 10.5231C9.15067 11.029 8.77981 10.7291 8.57895 11.1884C8.5399 11.2776 8.61756 11.4114 8.64534 11.5338C8.77577 11.538 8.88344 11.5784 8.95328 11.5368C9.17932 11.4017 9.28883 11.4787 9.41006 11.6613C9.64997 12.0222 10.2079 11.4622 9.90579 11.1867Z" fill="#191919"/>
<path d="M10.4238 10.6959C10.5672 10.8297 10.5321 10.961 10.4621 11.1435C10.4098 11.2793 10.4407 11.441 10.4371 11.5279C10.6884 11.7091 10.9312 11.6322 11.0047 11.3925C11.0789 11.1502 11.1802 11.0323 11.4282 11.0082C11.8958 10.9626 11.8041 10.1614 11.3394 10.3643C11.1349 10.4537 11.033 10.4242 10.933 10.2379C10.7019 9.80899 10.0732 10.3694 10.4238 10.6959Z" fill="#191919"/>
<path d="M20.4839 18.0798C20.5819 17.5802 19.8302 17.5606 19.8755 18.1191C19.8903 18.3011 19.8292 18.398 19.667 18.4789C19.1659 18.7283 19.5106 19.3576 19.9515 18.9981C20.093 18.8827 20.1897 18.8933 20.3108 18.9969C20.6799 19.3126 21.0831 18.6233 20.6847 18.46C20.5007 18.3839 20.4442 18.2835 20.4839 18.0798Z" fill="#191919"/>
</svg>
