<svg width="28" height="26" viewBox="0 0 28 26" fill="none" xmlns="http://www.w3.org/2000/svg">
<path d="M13.7901 7.21664C14.1795 7.13212 14.3506 6.8174 14.5474 6.53799C14.7228 6.2885 14.2898 6.04921 14.016 5.87319C13.8781 5.78454 13.7685 5.85271 13.694 6.00045C13.2727 6.83551 13.2422 6.85699 13.317 6.9989C13.4102 7.17602 13.3311 7.34242 13.1248 7.41269C12.8939 7.49106 12.8698 7.67502 12.6623 8.08444C12.5013 8.40216 12.7967 8.41161 13.1626 8.78345C13.5852 9.21286 13.5851 9.22021 14.1163 8.78252C14.1937 8.71844 14.2451 8.59339 14.2642 8.49361C14.3349 8.12477 14.5595 8.35935 14.8519 8.17701C14.9674 8.10507 15.0634 7.99742 15.1769 7.89767C15.727 7.34835 15.7369 7.22827 15.2606 6.81425C15.1777 6.74204 15.0888 6.67417 14.9449 6.82985C14.599 7.20373 14.3866 7.34074 14.3404 7.63626C14.2483 8.22474 13.6038 8.08825 13.5329 7.72615C13.4927 7.52071 13.608 7.25623 13.7901 7.21664Z" fill="#191919"/>
<path d="M10.9244 5.92916C11.2096 5.77919 11.3298 5.50989 11.4821 5.26726C11.8754 4.64127 11.8353 4.54734 11.1634 4.37989C11.0168 4.34348 10.9213 4.37741 10.8668 4.52779C10.5534 5.39022 10.523 5.41339 10.5915 5.67373C10.6853 6.02896 10.3337 5.91507 10.2543 6.1083C9.84884 7.09394 9.97582 6.83435 10.8738 7.34949C10.9961 7.41968 11.0981 7.42006 11.2086 7.31513C11.7387 6.81287 11.8336 6.72703 11.78 6.51259C11.7363 6.33645 11.8907 6.1592 12.0437 6.21128C12.3513 6.31621 12.5552 6.05948 13.0172 5.58172C13.2903 5.29928 12.939 5.27571 12.4763 4.94888C12.2211 4.76854 12.0963 4.94047 11.6038 5.7401C11.4297 6.02254 11.5876 6.31627 11.2658 6.38224C11.0655 6.42331 10.9129 6.3393 10.848 6.16681C10.8254 6.10674 10.8726 5.95628 10.9244 5.92916Z" fill="#191919"/>
<path d="M8.59246 4.79118C8.84004 4.60556 8.8836 4.33534 8.96825 4.08473C9.18646 3.43774 9.11819 3.35666 8.38157 3.30893C8.22079 3.29829 8.13325 3.34553 8.12128 3.49454C8.05407 4.34762 8.02961 4.37492 8.17638 4.60697C8.37665 4.92305 7.9835 4.87342 7.95888 5.06646C7.83343 6.05182 7.91123 5.79573 8.957 6.1236C9.21961 6.20606 9.25866 6.10836 9.61028 5.56725C9.6862 5.45047 9.7265 5.34167 9.63833 5.1981C9.54192 5.04095 9.64776 4.85078 9.81958 4.87482C10.1635 4.92258 10.2943 4.65737 10.6303 4.13112C10.8267 3.82379 10.4599 3.85826 9.8912 3.62816C9.59131 3.50664 9.51177 3.64567 9.23133 4.50624C9.13633 4.79705 9.38386 5.04594 9.07452 5.15937C8.88179 5.22988 8.70097 5.17622 8.58383 5.02579C8.54334 4.97226 8.54722 4.82464 8.59246 4.79118Z" fill="#191919"/>
<path d="M15.7207 9.73974C15.9643 9.62327 16.2001 9.48557 16.439 9.35699C16.4324 9.34274 16.4255 9.32879 16.4186 9.31428C17.0416 8.76414 17.0538 8.69163 16.6465 8.26771C16.4953 8.1102 16.3743 7.9908 16.1932 8.24265C15.9605 8.56591 15.7055 8.87483 15.4738 9.19888C15.4088 9.28981 15.275 9.72829 15.1963 9.73401C14.9335 9.75263 14.8311 9.97815 14.6674 10.1244C14.5431 10.2353 14.5505 10.3266 14.6307 10.4436C14.9449 10.9004 15.0728 11.2319 15.2198 11.2915C15.359 11.3479 15.8953 11.0561 15.9432 10.8999C15.9818 10.7743 16.0613 10.6638 16.1695 10.7174C16.3428 10.8032 16.3988 10.7526 17.1001 10.3174C17.7482 9.91492 17.7888 9.93513 17.3562 9.23619C17.2829 9.11733 17.2024 9.10821 17.0778 9.22253C16.4173 9.82877 16.1765 9.95352 16.1223 10.1482C16.0043 10.5741 15.5085 10.5182 15.475 10.1359C15.4603 9.9581 15.5362 9.82806 15.7207 9.73974Z" fill="#191919"/>
<path d="M7.12688 11.6713C6.88663 11.805 7.14482 11.4236 5.85877 12.496C5.62212 12.6933 5.95918 12.99 6.16489 13.2685C6.26065 13.3986 6.38625 13.3979 6.52876 13.2548C7.1987 12.5821 7.25186 12.5058 7.21837 12.292C7.18336 12.0679 7.31682 11.9157 7.58175 11.8958C7.84499 11.876 7.80935 11.8792 8.40769 11.2816C8.55396 11.1353 8.5734 11.0099 8.45402 10.8855C7.83371 10.2387 8.15349 9.98286 7.34336 10.3386C7.23825 10.3847 6.96197 10.4943 6.89241 10.6866C6.82642 10.8688 6.72356 10.9148 6.54815 10.8834C6.38533 10.8545 6.27393 10.8649 5.58648 11.1799C4.98866 11.4536 4.97411 11.4902 5.25051 11.9297C5.46388 12.2689 5.44876 12.2493 6.07735 11.8462C6.09192 11.8574 6.10645 11.868 6.12101 11.8792C6.71061 11.2903 7.16604 10.6616 7.38571 11.4505C7.39511 11.4863 7.22766 11.615 7.12688 11.6713Z" fill="#191919"/>
<path d="M9.34815 13.5176C9.14937 13.5992 9.04681 13.8049 8.86796 14.0614C8.48001 14.6168 8.53215 14.7404 9.15681 14.7599C9.33986 14.7657 9.49157 14.7069 9.60692 14.524C9.75268 14.2926 9.91287 14.0658 10.0425 13.8292C10.1925 13.5554 9.84437 13.3348 10.2819 13.1738C10.4611 13.1078 10.5076 12.9907 10.7293 12.4581C10.7996 12.2892 10.7384 12.2 10.5898 12.155C9.53114 11.8333 9.78224 11.5851 9.1547 12.1206C8.96059 12.2863 8.82677 12.364 8.82709 12.5757C8.82728 12.7338 8.67587 12.8919 8.50501 12.8481C8.30485 12.7965 8.23655 12.9004 7.82232 13.2657C7.82385 13.2676 7.82535 13.2689 7.82688 13.2708C7.62139 13.4525 7.29377 13.7222 7.30299 13.7896C7.31912 13.9066 7.39364 14.0313 7.49391 14.0837C7.67637 14.1796 7.88295 14.2861 8.1017 14.2723C8.27941 14.2612 8.77974 13.4992 8.7818 13.3023C8.78433 13.0565 8.93537 12.9012 9.15921 12.7928C9.58965 12.5842 10.0413 13.2336 9.34815 13.5176Z" fill="#191919"/>
<path d="M5.5473 9.74173C3.7137 10.1575 4.10968 10.5175 4.41122 10.9054C4.50279 11.0233 4.6049 11.0477 4.76626 10.9465C5.58384 10.433 5.67996 10.4479 5.69306 10.2299C5.70196 10.0856 5.8347 9.96994 5.96165 10.0288C6.15584 10.1186 6.23223 10.0218 6.98445 9.46744C7.11782 9.38728 7.15796 9.25873 7.00963 9.11062C6.61901 8.72035 6.89113 8.25418 5.89932 8.49138C5.84901 8.50343 5.79376 8.50055 5.74936 8.5252C5.64667 8.58247 5.53316 8.63818 5.45357 8.72047C5.29705 8.88262 5.11962 8.91514 4.9622 8.81788C4.67385 8.63971 4.37498 8.70616 4.09553 8.73294C3.55602 8.78494 3.53755 8.80902 3.66666 9.27996C3.80427 9.78167 3.80427 9.78167 4.36593 9.57209C4.64869 9.46661 5.02798 9.24017 5.24876 9.08934C5.44846 8.95288 5.75241 8.9725 5.85149 9.15319C5.97488 9.37746 5.81104 9.6821 5.5473 9.74173Z" fill="#191919"/>
<path d="M4.61072 4.40661C4.50006 4.29048 4.37581 4.29015 4.24935 4.42407C3.43429 5.29058 3.24446 5.41821 3.64127 5.60565C4.79725 6.15048 4.87112 6.15326 5.15823 6.11412C5.42378 6.07781 5.6032 6.26961 5.50857 6.52313C5.47331 6.61833 5.41882 6.70886 5.35499 6.83783C6.04005 7.04224 5.99651 7.05865 6.3163 6.69099C6.41005 6.5835 6.58004 6.47185 6.58345 6.37309C6.58801 6.24885 6.45726 6.1363 6.38517 6.01849C6.32101 5.914 6.2928 5.77214 6.05631 5.89859C5.77346 6.0501 5.59563 5.93865 5.55534 5.64682C5.50471 5.27916 5.44339 5.27838 4.61072 4.40661Z" fill="#191919"/>
<path d="M6.59897 5.50982C6.56482 5.57473 6.42041 5.63727 6.42724 5.66816C6.4583 5.8104 6.5067 5.9546 6.58498 6.072C6.80603 6.40366 6.86575 6.2981 7.66183 6.06413C7.59656 5.82193 7.54117 5.58417 7.4652 5.35537C7.39277 5.13764 7.02883 5.21061 7.24213 4.91544C7.32341 4.80283 7.33479 4.81281 6.91352 3.5928C6.86544 3.45366 6.75665 3.37891 6.59462 3.4138C5.71965 3.60298 5.26954 3.64489 5.49946 3.98697C6.36618 5.27492 6.1414 4.92516 6.44229 5.05762C6.63477 5.1427 6.80319 5.12348 6.59897 5.50982Z" fill="#191919"/>
<path d="M3.18962 6.52912C3.03792 6.48034 2.94174 6.55496 2.92649 6.71011C2.80342 7.94292 2.79452 7.72526 3.88883 7.88903C4.05878 7.9146 4.21485 7.90945 4.37997 7.79248C4.70027 7.56624 4.79698 7.9563 4.97565 7.98158C5.23895 8.01853 5.50706 8.03852 5.77536 8.05284C5.91024 8.06038 5.96954 7.99156 5.96345 7.84684C5.95234 7.59545 6.02175 7.17672 5.93572 7.14791C5.21758 6.90812 5.3528 7.01134 5.08052 7.22936C4.86429 7.46684 4.66104 7.42426 4.57999 7.15232C4.51644 6.94079 4.51728 6.95795 3.18962 6.52912Z" fill="#191919"/>
<path d="M21.6268 21.3806C21.5626 21.6158 21.5517 21.5696 22.2146 22.6894C22.3015 22.8361 22.4307 22.8853 22.5936 22.7351C23.5434 21.8612 23.8842 21.6285 23.4881 21.3612C22.6314 20.782 22.5647 20.6695 22.2602 20.7358C21.9534 20.8022 21.8065 20.6833 21.8677 20.382C21.8816 20.3137 21.9065 20.2454 21.9305 20.1631C21.1273 19.7671 21.5415 19.8707 20.8143 20.3378C20.9839 20.742 21.0184 20.9498 21.2363 20.922C21.5966 20.8761 21.7241 21.0244 21.6268 21.3806Z" fill="url(#paint0_linear_44_3514)"/>
<path d="M11.7387 14.462C11.4621 14.7272 11.4006 15.0505 11.2907 15.3606C11.1609 15.728 12.1268 15.7929 12.2067 14.8015C12.2195 14.6437 12.0821 14.5852 12.2247 14.2613C12.2615 14.1776 12.3473 14.1028 12.3704 14.0203C12.4099 13.8785 12.4078 13.7335 12.4402 13.5908C12.4945 13.3518 12.4212 13.2572 12.1639 13.3088C11.7524 13.3914 11.5991 13.0381 11.2107 13.5915C11.0764 13.7826 10.8811 13.9479 10.9606 14.2041C11.0197 14.3959 10.6932 14.454 10.5025 14.521C9.97687 15.1336 9.75285 15.3039 10.0539 15.3703C10.52 15.4733 10.6724 15.5708 10.7816 15.3164C10.9156 15.0041 11.1471 14.7159 11.1446 14.3665C11.1439 14.2822 11.3147 14.1055 11.4175 14.0765C11.5367 14.0433 11.6923 14.0986 11.7842 14.1702C11.8285 14.2048 11.7997 14.4032 11.7387 14.462Z" fill="#191919"/>
<path d="M23.9247 19.2411C24.0694 19.2689 24.1776 19.1497 24.1397 18.9929C23.8082 17.627 23.7892 17.5774 23.6429 17.5159C23.4158 17.4206 22.6259 17.6669 22.4105 17.8691C22.3658 17.9109 22.2562 17.9229 22.196 17.9051C21.8372 17.7982 21.4999 17.9973 21.1744 18.0494C21.3058 18.7142 21.8302 18.7894 22.338 18.8315C22.4578 18.7256 22.547 18.5956 22.6266 18.5901C22.7204 18.5834 22.8497 18.6602 22.8872 18.7424C23.0806 19.169 23.5298 19.1645 23.9247 19.2411Z" fill="url(#paint1_linear_44_3514)"/>
<path d="M19.7642 21.8174C19.7497 21.6913 19.4738 21.4965 19.4868 21.3977C19.4974 21.318 19.6532 21.2358 19.7675 21.1351C19.787 20.6827 19.7887 20.2046 19.1437 20.0947C19.0919 20.4196 18.7791 20.7219 18.9215 21.0864C18.9385 21.1298 18.8671 21.2257 18.8225 21.2893C18.4891 21.7649 18.8046 21.0517 18.3773 22.3377C18.2907 22.5978 18.3875 22.7563 18.6002 22.8437C20.0095 23.4247 19.9516 23.4365 19.7642 21.8174Z" fill="url(#paint2_linear_44_3514)"/>
<path d="M20.8852 21.1107C20.9728 20.9777 20.8201 20.6562 20.7498 20.514C20.676 20.3655 20.5625 20.4074 19.9946 20.4446C20.0653 20.7573 20.0679 21.0728 20.2085 21.2926C20.3136 21.4562 20.4981 21.5195 20.2532 21.7456C20.1914 21.8027 20.2667 22.1035 20.4454 23.0546C20.5199 23.4512 20.8507 23.303 21.6264 23.1799C21.8359 23.1464 21.8821 23.0364 21.8116 22.8744C21.4597 22.066 21.4147 21.8279 21.0458 21.7041C20.764 21.6091 20.6963 21.3981 20.8852 21.1107Z" fill="url(#paint3_linear_44_3514)"/>
<path d="M17.8997 20.921C17.5856 21.0085 17.509 21.2741 17.3606 21.4916C17.1479 21.8037 17.3588 21.8864 17.642 22.1364C18.078 22.5214 17.9005 22.0356 18.6453 20.2728C18.9004 19.6688 18.9192 19.6837 18.4699 19.2504C18.3355 19.1208 18.2425 19.1114 18.1037 19.26C16.3948 21.0919 16.3643 20.8717 16.9155 21.3943C16.9279 21.4062 16.9468 21.4112 17.0313 21.455C17.1977 21.1511 17.3817 20.8694 17.5053 20.5677C17.5762 20.3956 17.6252 20.208 17.8207 20.2226C18.2335 20.2535 18.3029 20.8093 17.8997 20.921Z" fill="url(#paint4_linear_44_3514)"/>
<path d="M19.9679 16.2944C21.8481 14.8762 21.8598 14.9638 21.3062 14.4433C21.2939 14.4319 21.2736 14.4285 21.2146 14.4027C20.8045 15.0287 20.409 15.8434 20.1363 15.1597C20.1201 15.119 20.234 14.9655 20.3039 14.9474C20.7123 14.8408 20.801 14.4761 20.9238 14.1821C20.9691 14.0729 20.7796 13.8727 20.6756 13.7302C20.5714 13.5868 20.4861 13.6303 20.3869 13.7918C19.0229 16.0141 18.9426 15.7243 19.365 16.0476C19.5897 16.2192 19.6316 16.5479 19.9679 16.2944Z" fill="#191919"/>
<path d="M21.8765 16.4825C22.1038 16.4916 22.5366 16.0296 22.4601 15.8672C22.3756 15.6881 22.2389 15.5364 22.1479 15.4057C19.8572 17.4291 20.3146 16.8519 20.743 17.5912C20.856 17.7863 21.0049 17.8129 21.2101 17.7179C23.2046 16.793 23.1734 16.8992 22.7687 16.2973C22.7602 16.2846 22.7388 16.2812 22.6796 16.2515C22.4845 16.4238 22.2487 16.5874 22.0774 16.7991C21.9664 16.9365 21.8801 17.067 21.7239 16.9798C21.5679 16.8924 21.4006 16.4632 21.8765 16.4825Z" fill="url(#paint5_linear_44_3514)"/>
<path d="M16.5825 19.1484C16.3389 19.214 15.8224 19.6423 15.8445 19.8726C15.8654 20.0923 16.0331 20.2855 16.1652 20.5476C16.4984 20.1223 16.5096 20.0388 17.2605 18.9337C17.3902 18.7429 17.6366 18.5683 17.6574 18.382C17.6779 18.1986 17.4702 18.0154 17.3811 17.8228C17.3031 17.6548 17.2031 17.6105 17.0347 17.7337C15.0989 19.1445 15.1837 18.8823 15.5587 19.6294C16.1119 18.9847 16.4076 18.5732 16.5869 18.6715C16.6803 18.7227 16.7504 18.8458 16.7763 18.9553C16.7867 18.9989 16.6602 19.1275 16.5825 19.1484Z" fill="#191919"/>
<path d="M21.5565 19.0407C21.5405 19.2307 21.5364 19.3368 21.5211 19.4431C21.5057 19.5494 21.4443 19.6683 21.4658 19.7593C21.5071 19.9322 22.0525 20.0432 22.2237 19.9332C22.4521 19.7864 22.6988 19.8549 22.6778 20.0861C22.6538 20.348 22.7841 20.4671 22.9713 20.5703C23.9827 21.1277 23.9796 21.3227 24.1691 20.4783C24.2797 19.9854 24.2379 19.9037 23.7964 19.7539C23.1758 19.543 23.0609 19.482 22.8344 19.6109C22.7865 19.6383 22.6515 19.5808 22.6158 19.5224C22.39 19.1569 21.9498 19.2044 21.5565 19.0407Z" fill="url(#paint6_linear_44_3514)"/>
<path d="M8.49885 9.70895C8.26582 10.2502 9.03508 10.3695 9.12036 9.80092C9.14815 9.61756 9.22372 9.51267 9.41335 9.46806C9.97386 9.33591 9.75504 8.59868 9.24855 8.87467C9.04847 8.98377 8.93712 8.94335 8.78933 8.82063C8.69736 8.74421 8.5094 8.77544 8.4252 8.76571C8.16271 9.00397 8.1688 9.24779 8.38054 9.3683C8.52332 9.44901 8.57702 9.52737 8.49885 9.70895Z" fill="#191919"/>
<path d="M8.44465 8.00015C8.21162 8.54139 8.98088 8.66068 9.06616 8.09212C9.09339 7.9088 9.16952 7.80387 9.35915 7.75926C9.91966 7.62711 9.70084 6.88988 9.19435 7.16587C8.99427 7.27497 8.88292 7.23455 8.73513 7.11182C8.64316 7.03541 8.4552 7.06664 8.371 7.05691C8.10851 7.29517 8.11461 7.53899 8.32634 7.6595C8.46886 7.74051 8.52256 7.81887 8.44465 8.00015Z" fill="#191919"/>
<path d="M14.5297 12.2193C14.7088 11.7293 13.8869 11.6857 13.8854 12.1878C13.8848 12.4295 13.775 12.5324 13.5529 12.6212C13.3166 12.7155 13.2505 12.9612 13.4435 13.1967C13.5298 13.1897 13.6963 13.2197 13.824 13.1557C14.0128 13.0606 14.1404 13.03 14.2945 13.1661C14.6418 13.4728 15.1211 12.7867 14.6987 12.6097C14.5106 12.5305 14.4496 12.4394 14.5297 12.2193Z" fill="#191919"/>
<path d="M13.4851 10.4769C13.6602 9.93518 12.8777 9.87522 12.8472 10.4574C12.8375 10.6413 12.7708 10.7487 12.5792 10.8059C12.0481 10.9643 12.3008 11.7052 12.8069 11.3728C12.9823 11.2574 13.0944 11.2608 13.2498 11.3712C13.3499 11.4425 13.5334 11.4079 13.6169 11.4155C13.8897 11.1624 13.8677 10.9089 13.6274 10.8047C13.4699 10.7359 13.4264 10.6575 13.4851 10.4769Z" fill="#191919"/>
<path d="M6.72659 7.80865C6.60042 8.2486 7.29817 8.3624 7.38049 7.79602C7.43957 7.38785 7.54674 7.43786 7.85456 7.27964C7.85739 7.16342 7.90094 7.005 7.85399 6.89175C7.78627 6.72849 7.60423 6.69072 7.43548 6.80398C7.23589 6.9379 7.08635 6.99964 6.8898 6.84369C6.56038 6.58181 6.09752 7.28662 6.5358 7.43041C6.73546 7.49582 6.78891 7.59198 6.72659 7.80865Z" fill="#191919"/>
<path d="M18.9738 17.8743C19.0224 17.7113 19.1045 17.6407 19.274 17.6214C19.5347 17.5919 19.6653 17.4436 19.6408 17.2419C19.6154 17.0321 19.447 16.9734 19.1743 17.0209C18.7968 17.0863 18.7217 16.5689 18.3452 16.8641C18.1736 16.9987 18.1804 17.1832 18.4201 17.4385C18.4185 17.4736 18.4422 17.594 18.4012 17.6922C18.2982 17.9389 18.3242 18.1032 18.515 18.1751C18.7118 18.2492 18.8949 18.1389 18.9738 17.8743Z" fill="#191919"/>
<path d="M11.566 8.58735C11.5981 8.51269 11.5443 8.41147 11.5229 8.28243C11.3974 8.2709 11.2551 8.21133 11.1717 8.26168C10.7426 8.52074 11.088 8.84961 10.5989 9.00785C10.1179 9.1636 10.3939 9.86828 10.8257 9.58137C11.0332 9.44327 11.1725 9.43301 11.3432 9.57739C11.6561 9.8412 12.1382 9.21474 11.7491 9.02397C11.5525 8.92788 11.4613 8.82939 11.566 8.58735Z" fill="#191919"/>
<path d="M10.7152 11.1056C10.5747 11.5928 11.3809 11.5792 11.3651 11.1096C11.3567 10.8605 11.4604 10.7448 11.6909 10.6396C11.919 10.5354 11.9636 10.2846 11.7512 10.0591C11.6655 10.0741 11.5008 10.0648 11.3732 10.1342C11.2015 10.2273 11.0758 10.2793 10.9245 10.1545C10.555 9.84953 10.0815 10.546 10.5369 10.7186C10.7346 10.794 10.7771 10.8912 10.7152 11.1056Z" fill="#191919"/>
<path d="M20.444 18.8754C20.3252 18.7685 20.3024 18.6743 20.3984 18.519C20.6975 18.0347 20.0286 17.775 19.8465 18.3047C19.7874 18.476 19.6993 18.5492 19.517 18.5584C18.9572 18.5863 19.0751 19.3287 19.5574 19.1667C19.7543 19.1004 19.8614 19.1439 19.9602 19.3165C20.1744 19.6898 20.8049 19.1998 20.444 18.8754Z" fill="url(#paint7_linear_44_3514)"/>
<defs>
<linearGradient id="paint0_linear_44_3514" x1="22.6138" y1="20.5867" x2="21.3849" y2="21.9879" gradientUnits="userSpaceOnUse">
<stop stop-color="#191919"/>
<stop offset="1" stop-color="white"/>
</linearGradient>
<linearGradient id="paint1_linear_44_3514" x1="23.6312" y1="17.4848" x2="22.1479" y2="19.1762" gradientUnits="userSpaceOnUse">
<stop stop-color="#191919"/>
<stop offset="1" stop-color="white"/>
</linearGradient>
<linearGradient id="paint2_linear_44_3514" x1="20.1739" y1="20.8145" x2="18.4636" y2="22.7646" gradientUnits="userSpaceOnUse">
<stop stop-color="#191919"/>
<stop offset="1" stop-color="white"/>
</linearGradient>
<linearGradient id="paint3_linear_44_3514" x1="21.4699" y1="21.1231" x2="20.0118" y2="22.7857" gradientUnits="userSpaceOnUse">
<stop stop-color="#191919"/>
<stop offset="1" stop-color="white"/>
</linearGradient>
<linearGradient id="paint4_linear_44_3514" x1="18.9252" y1="19.6485" x2="17.1302" y2="21.6952" gradientUnits="userSpaceOnUse">
<stop stop-color="#191919"/>
<stop offset="1" stop-color="white"/>
</linearGradient>
<linearGradient id="paint5_linear_44_3514" x1="22.626" y1="15.8251" x2="20.9145" y2="17.7766" gradientUnits="userSpaceOnUse">
<stop stop-color="#191919"/>
<stop offset="1" stop-color="white"/>
</linearGradient>
<linearGradient id="paint6_linear_44_3514" x1="23.4196" y1="19.2892" x2="22.3225" y2="20.5402" gradientUnits="userSpaceOnUse">
<stop stop-color="#191919"/>
<stop offset="1" stop-color="white"/>
</linearGradient>
<linearGradient id="paint7_linear_44_3514" x1="20.5336" y1="18.2114" x2="19.5201" y2="19.367" gradientUnits="userSpaceOnUse">
<stop stop-color="#191919"/>
<stop offset="1" stop-color="white"/>
</linearGradient>
</defs>
</svg>
