<svg width="176" height="39" viewBox="0 0 176 39" fill="none" xmlns="http://www.w3.org/2000/svg">
<path d="M35.5576 10.1824L30.635 4.69961C30.4946 4.54321 30.3415 4.39869 30.1772 4.26751C28.9034 3.24987 27.1237 3.15406 25.7479 4.02904L23.448 5.49172C23.0933 5.7173 22.7579 5.97181 22.4451 6.25263L20.6828 7.83488L17.2963 11.5473L6.91695 20.1942L4.8628 22.3726C3.61319 23.6978 3.31419 25.6581 4.11189 27.2956C4.29012 27.6614 4.51847 28.0007 4.79035 28.3035L8.97107 32.96C9.2497 33.2704 9.57023 33.5403 9.9234 33.7622C11.4659 34.7312 13.4411 34.6718 14.9226 33.612L19.06 30.6524C19.5781 30.2817 20.066 29.8707 20.5193 29.423L26.2678 23.7454C26.9666 23.0552 27.7152 22.4175 28.5077 21.8373L31.3719 19.7405L33.1342 18.1582C33.447 17.8774 33.736 17.5712 33.9984 17.2428L35.6996 15.1133C36.7172 13.8394 36.813 12.0597 35.938 10.6839C35.8252 10.5065 35.698 10.3388 35.5576 10.1824Z" stroke="#fff"/>
<path d="M28.3955 22.4127L29.1209 23.2207C29.2981 23.418 29.3896 23.6776 29.3753 23.9425L29.3485 24.4418C29.3336 24.7175 29.098 24.929 28.8223 24.9142V24.9142C28.6899 24.907 28.5657 24.8476 28.4771 24.7489L27.6134 23.7869L27.2794 23.4148" stroke="#fff"/>
<path d="M18.0403 10.8792L17.3149 10.0713C17.1377 9.87393 16.8894 9.75505 16.6246 9.7408L16.1253 9.71391C15.8495 9.69907 15.614 9.91057 15.5991 10.1863V10.1863C15.592 10.3187 15.6378 10.4486 15.7264 10.5472L16.5901 11.5093L16.9241 11.8813" stroke="#fff"/>
<path d="M23.7262 12.261L22.2113 11.3093C21.6966 10.986 21.015 11.1927 20.7666 11.7474L19.5334 14.5018C19.3507 14.91 19.4612 15.3899 19.804 15.6771L21.3873 17.0033C21.7505 17.3076 22.0686 17.6619 22.3321 18.0556L23.4369 19.7068C23.7057 20.1084 24.2232 20.2604 24.6665 20.0678L27.3868 18.886C27.8724 18.675 28.1094 18.122 27.9273 17.6248L27.6567 16.8861C27.4379 16.2888 27.1072 15.7387 26.6822 15.2654L24.787 13.1545C24.4767 12.8088 24.1196 12.5081 23.7262 12.261Z" stroke="#fff"/>
<path d="M9.46442 25.7374L8.57378 23.9091C8.34858 23.4468 8.51069 22.8891 8.9486 22.6195L12.1429 20.6533C12.5904 20.3779 13.1747 20.4958 13.4805 20.9231L15.2284 23.3666C15.4566 23.6856 15.7215 23.9766 16.0176 24.2336L17.9018 25.869C18.3026 26.2169 18.3618 26.8173 18.0367 27.2368L15.6922 30.2617C15.401 30.6375 14.8854 30.7563 14.4591 30.5458L13.6408 30.1417C13.0705 29.8601 12.5591 29.4722 12.1341 28.9989L10.2389 26.888C9.92856 26.5423 9.66789 26.155 9.46442 25.7374Z" stroke="#fff"/>
<path d="M12.5235 36.663L14.5553 34.8388C14.6983 34.7104 14.5956 34.4739 14.4041 34.4908L10.5184 34.834C10.3387 34.8499 10.2702 35.0769 10.4112 35.1895L12.265 36.6705C12.3414 36.7315 12.4507 36.7284 12.5235 36.663Z" fill="#fff" stroke="#fff" stroke-width="0.5"/>
<path d="M1.83417 24.7575L3.86598 22.9333C4.009 22.8049 4.23315 22.9324 4.19578 23.121L3.43731 26.9473C3.40223 27.1243 3.1692 27.168 3.07237 27.0158L1.79902 25.0136C1.74655 24.9311 1.76142 24.8228 1.83417 24.7575Z" fill="#fff" stroke="#fff" stroke-width="0.5"/>
<path d="M29.0498 3.68248L28.4545 4.21694C28.3724 4.29073 28.3655 4.41718 28.4393 4.49937L30.2384 6.5032C30.2831 6.55296 30.3497 6.5771 30.4159 6.56753L32.0942 6.32484" stroke="#fff" stroke-width="0.5"/>
<path d="M36.3985 11.8675L35.8032 12.402C35.721 12.4758 35.5945 12.469 35.5207 12.3868L33.7217 10.383C33.677 10.3332 33.6601 10.2644 33.6768 10.1996L34.0982 8.55711" stroke="#fff" stroke-width="0.5"/>
<path d="M19.9744 27.9222L26.7321 21.2478C26.8086 21.1723 26.7284 21.0458 26.6275 21.0827L24.5492 21.844C24.5372 21.8483 24.5262 21.855 24.5168 21.8635L21.1979 24.8432C21.1879 24.8522 21.1797 24.8632 21.174 24.8755L19.8134 27.8089C19.7666 27.91 19.8952 28.0005 19.9744 27.9222Z" stroke="#fff" stroke-width="0.5"/>
<path d="M10.9905 17.916L18.3519 11.914C18.4351 11.8461 18.5523 11.9394 18.5047 12.0358L17.5247 14.0203C17.5191 14.0317 17.5114 14.0419 17.5019 14.0504L14.183 17.0301C14.173 17.0392 14.1612 17.0461 14.1483 17.0504L11.0858 18.0882C10.9803 18.124 10.9042 17.9864 10.9905 17.916Z" stroke="#fff" stroke-width="0.5"/>
<path d="M34.6747 17.0652C34.6847 17.0561 34.7101 17.0334 34.7576 17.0044C34.86 16.942 34.9724 17.0181 35.0517 17.0804C35.0708 17.0955 35.0889 17.1067 35.0733 17.1348C34.9752 17.3113 34.7203 17.4106 34.6135 17.5294C34.5353 17.6164 34.4314 17.7252 34.3247 17.853C34.2659 17.9234 34.227 18.0007 34.1828 18.0587C34.1345 18.1221 33.8448 18.3899 33.4326 18.7554C33.2015 18.9604 33.0775 19.0054 32.9726 19.0627C32.8738 19.0964 32.7468 19.1185 32.6526 19.1522C32.6279 19.1606 32.5987 19.1687 32.5395 19.1754" stroke="#fff" stroke-linecap="round"/>
<path d="M24.2036 4.63409C24.1419 4.52446 24.0336 4.38323 23.903 4.29359C23.6339 4.10885 23.3509 4.63618 23.1759 4.77939C23.0375 4.89266 22.8699 5.01284 22.7814 5.07839C22.7591 5.09489 22.734 5.10732 22.5775 5.24309C22.4211 5.37887 22.1336 5.63695 21.9802 5.77921C21.7714 5.97293 21.7077 6.06515 21.6362 6.1799C21.5316 6.34764 21.5056 6.48562 21.4719 6.57121C21.4519 6.67209 21.4243 6.73357 21.4098 6.77875C21.4014 6.80025 21.3908 6.81888 21.3936 6.85335" stroke="#fff" stroke-linecap="round"/>
<path d="M80.6684 10.1824L75.7458 4.69961C75.6054 4.54321 75.4523 4.39869 75.2881 4.26751C74.0142 3.24987 72.2345 3.15406 70.8587 4.02904L68.5589 5.49172C68.2042 5.7173 67.8687 5.97181 67.5559 6.25263L65.7936 7.83488L62.4072 11.5473L52.0278 20.1942L49.9736 22.3726C48.724 23.6978 48.425 25.6581 49.2227 27.2956C49.401 27.6614 49.6293 28.0007 49.9012 28.3035L54.0819 32.96C54.3605 33.2704 54.6811 33.5403 55.0342 33.7622C56.5768 34.7312 58.5519 34.6718 60.0335 33.612L64.1708 30.6524C64.6889 30.2817 65.1769 29.8707 65.6301 29.423L71.3786 23.7454C72.0774 23.0552 72.826 22.4175 73.6185 21.8373L76.4827 19.7405L78.245 18.1582C78.5578 17.8774 78.8469 17.5712 79.1092 17.2428L80.8104 15.1133C81.828 13.8394 81.9238 12.0597 81.0489 10.6839C80.9361 10.5065 80.8088 10.3388 80.6684 10.1824Z" stroke="#fff"/>
<path d="M73.5063 22.4127L74.2317 23.2207C74.4089 23.418 74.5004 23.6776 74.4862 23.9425L74.4593 24.4418C74.4445 24.7175 74.2089 24.929 73.9331 24.9142V24.9142C73.8007 24.907 73.6766 24.8476 73.588 24.7489L72.7242 23.7869L72.3902 23.4148" stroke="#fff"/>
<path d="M63.1511 10.8792L62.4257 10.0713C62.2486 9.87393 62.0002 9.75505 61.7354 9.7408L61.2361 9.71391C60.9604 9.69907 60.7248 9.91057 60.71 10.1863V10.1863C60.7028 10.3187 60.7486 10.4486 60.8372 10.5472L61.7009 11.5093L62.035 11.8813" stroke="#fff"/>
<path d="M68.8371 12.261L67.3221 11.3093C66.8075 10.986 66.1258 11.1927 65.8775 11.7474L64.6443 14.5018C64.4615 14.91 64.572 15.3899 64.9148 15.6771L66.4981 17.0033C66.8613 17.3076 67.1794 17.6619 67.4429 18.0556L68.5478 19.7068C68.8165 20.1084 69.3341 20.2604 69.7773 20.0678L72.4976 18.886C72.9832 18.675 73.2202 18.122 73.0381 17.6248L72.7675 16.8861C72.5488 16.2888 72.218 15.7387 71.7931 15.2654L69.8979 13.1545C69.5875 12.8088 69.2305 12.5081 68.8371 12.261Z" stroke="#fff"/>
<path d="M54.5753 25.7374L53.6846 23.9091C53.4594 23.4468 53.6215 22.8891 54.0594 22.6195L57.2538 20.6533C57.7013 20.3779 58.2856 20.4958 58.5913 20.9231L60.3393 23.3666C60.5674 23.6856 60.8323 23.9766 61.1284 24.2336L63.0126 25.869C63.4134 26.2169 63.4726 26.8173 63.1475 27.2368L60.8031 30.2617C60.5118 30.6375 60.0062 30.7563 59.5699 30.5458L58.7516 30.1417C58.1813 29.8601 57.6699 29.4722 57.245 28.9989L55.3498 26.888C55.0394 26.5423 54.7787 26.155 54.5753 25.7374Z" stroke="#fff"/>
<path d="M57.6343 36.663L59.6661 34.8388C59.8092 34.7104 59.7064 34.4739 59.5149 34.4908L55.6292 34.834C55.4495 34.8499 55.381 35.0769 55.522 35.1895L57.3759 36.6705C57.4523 36.7315 57.5616 36.7284 57.6343 36.663Z" fill="#fff" stroke="#fff" stroke-width="0.5"/>
<path d="M46.945 24.7575L48.9768 22.9333C49.1198 22.8049 49.344 22.9324 49.3066 23.121L48.5482 26.9473C48.5131 27.1243 48.28 27.168 48.1832 27.0158L46.9099 25.0136C46.8574 24.9311 46.8723 24.8228 46.945 24.7575Z" fill="#fff" stroke="#fff" stroke-width="0.5"/>
<path d="M74.1607 3.68248L73.5654 4.21694C73.4832 4.29073 73.4764 4.41718 73.5502 4.49937L75.3493 6.5032C75.3939 6.55296 75.4605 6.5771 75.5267 6.56753L77.205 6.32484" stroke="#fff" stroke-width="0.5"/>
<path d="M81.5093 11.8675L80.914 12.402C80.8318 12.4758 80.7054 12.469 80.6316 12.3868L78.8325 10.383C78.7878 10.3332 78.771 10.2644 78.7876 10.1996L79.2091 8.55711" stroke="#fff" stroke-width="0.5"/>
<path d="M65.0853 27.9222L71.843 21.2478C71.9194 21.1723 71.8392 21.0458 71.7383 21.0827L69.66 21.844C69.6481 21.8483 69.6371 21.855 69.6276 21.8635L66.3088 24.8432C66.2987 24.8522 66.2906 24.8632 66.2849 24.8755L64.9243 27.8089C64.8774 27.91 65.006 28.0005 65.0853 27.9222Z" stroke="#fff" stroke-width="0.5"/>
<path d="M56.1014 17.916L63.4627 11.914C63.546 11.8461 63.6631 11.9394 63.6155 12.0358L62.6356 14.0203C62.63 14.0317 62.6222 14.0419 62.6127 14.0504L59.2939 17.0301C59.2838 17.0392 59.272 17.0461 59.2592 17.0504L56.1966 18.0882C56.0911 18.124 56.015 17.9864 56.1014 17.916Z" stroke="#fff" stroke-width="0.5"/>
<path d="M79.7855 17.0652C79.7956 17.0561 79.821 17.0334 79.8684 17.0044C79.9708 16.942 80.0833 17.0181 80.1625 17.0804C80.1817 17.0955 80.1998 17.1067 80.1842 17.1348C80.0861 17.3113 79.8312 17.4106 79.7244 17.5294C79.6461 17.6164 79.5423 17.7252 79.4356 17.853C79.3768 17.9234 79.3378 18.0007 79.2936 18.0587C79.2454 18.1221 78.9556 18.3899 78.5434 18.7554C78.3123 18.9604 78.1883 19.0054 78.0834 19.0627C77.9846 19.0964 77.8576 19.1185 77.7635 19.1522C77.7387 19.1606 77.7095 19.1687 77.6504 19.1754" stroke="#fff" stroke-linecap="round"/>
<path d="M69.3144 4.63409C69.2527 4.52446 69.1444 4.38323 69.0138 4.29359C68.7447 4.10885 68.4618 4.63618 68.2868 4.77939C68.1483 4.89266 67.9808 5.01284 67.8922 5.07839C67.87 5.09489 67.8448 5.10732 67.6884 5.24309C67.5319 5.37887 67.2444 5.63695 67.0911 5.77921C66.8822 5.97293 66.8185 6.06515 66.747 6.1799C66.6424 6.34764 66.6164 6.48562 66.5828 6.57121C66.5628 6.67209 66.5352 6.73357 66.5207 6.77875C66.5122 6.80025 66.5016 6.81888 66.5044 6.85335" stroke="#fff" stroke-linecap="round"/>
<path d="M125.779 10.1824L120.857 4.69961C120.716 4.54321 120.563 4.39869 120.399 4.26751C119.125 3.24987 117.346 3.15406 115.97 4.02904L113.67 5.49172C113.315 5.7173 112.98 5.97181 112.667 6.25263L110.905 7.83488L107.518 11.5473L97.1389 20.1942L95.0847 22.3726C93.8351 23.6978 93.5361 25.6581 94.3338 27.2956C94.512 27.6614 94.7404 28.0007 95.0123 28.3035L99.193 32.96C99.4716 33.2704 99.7922 33.5403 100.145 33.7622C101.688 34.7312 103.663 34.6718 105.145 33.612L109.282 30.6524C109.8 30.2817 110.288 29.8707 110.741 29.423L116.49 23.7454C117.188 23.0552 117.937 22.4175 118.73 21.8373L121.594 19.7405L123.356 18.1582C123.669 17.8774 123.958 17.5712 124.22 17.2428L125.921 15.1133C126.939 13.8394 127.035 12.0597 126.16 10.6839C126.047 10.5065 125.92 10.3388 125.779 10.1824Z" stroke="#fff"/>
<path d="M118.617 22.4127L119.343 23.2207C119.52 23.418 119.612 23.6776 119.597 23.9425L119.57 24.4418C119.556 24.7175 119.32 24.929 119.044 24.9142V24.9142C118.912 24.907 118.788 24.8476 118.699 24.7489L117.835 23.7869L117.501 23.4148" stroke="#fff"/>
<path d="M108.262 10.8792L107.537 10.0713C107.36 9.87393 107.111 9.75505 106.846 9.7408L106.347 9.71391C106.071 9.69907 105.836 9.91057 105.821 10.1863V10.1863C105.814 10.3187 105.86 10.4486 105.948 10.5472L106.812 11.5093L107.146 11.8813" stroke="#fff"/>
<path d="M113.948 12.261L112.433 11.3093C111.919 10.986 111.237 11.1927 110.989 11.7474L109.755 14.5018C109.573 14.91 109.683 15.3899 110.026 15.6771L111.609 17.0033C111.972 17.3076 112.291 17.6619 112.554 18.0556L113.659 19.7068C113.928 20.1084 114.445 20.2604 114.888 20.0678L117.609 18.886C118.094 18.675 118.331 18.122 118.149 17.6248L117.879 16.8861C117.66 16.2888 117.329 15.7387 116.904 15.2654L115.009 13.1545C114.699 12.8088 114.342 12.5081 113.948 12.261Z" stroke="#fff"/>
<path d="M99.6863 25.7374L98.7957 23.9091C98.5705 23.4468 98.7326 22.8891 99.1705 22.6195L102.365 20.6533C102.812 20.3779 103.397 20.4958 103.702 20.9231L105.45 23.3666C105.678 23.6856 105.943 23.9766 106.24 24.2336L108.124 25.869C108.524 26.2169 108.584 26.8173 108.259 27.2368L105.914 30.2617C105.623 30.6375 105.107 30.7563 104.681 30.5458L103.863 30.1417C103.292 29.8601 102.781 29.4722 102.356 28.9989L100.461 26.888C100.15 26.5423 99.8898 26.155 99.6863 25.7374Z" stroke="#fff"/>
<path d="M102.745 36.663L104.777 34.8388C104.92 34.7104 104.817 34.4739 104.626 34.4908L100.74 34.834C100.561 34.8499 100.492 35.0769 100.633 35.1895L102.487 36.6705C102.563 36.7315 102.673 36.7284 102.745 36.663Z" fill="#fff" stroke="#fff" stroke-width="0.5"/>
<path d="M92.0561 24.7575L94.0879 22.9333C94.2309 22.8049 94.4551 22.9324 94.4177 23.121L93.6592 26.9473C93.6242 27.1243 93.3911 27.168 93.2943 27.0158L92.0209 25.0136C91.9685 24.9311 91.9833 24.8228 92.0561 24.7575Z" fill="#fff" stroke="#fff" stroke-width="0.5"/>
<path d="M119.272 3.68248L118.676 4.21694C118.594 4.29073 118.587 4.41718 118.661 4.49937L120.46 6.5032C120.505 6.55296 120.572 6.5771 120.638 6.56753L122.316 6.32484" stroke="#fff" stroke-width="0.5"/>
<path d="M126.62 11.8675L126.025 12.402C125.943 12.4758 125.816 12.469 125.743 12.3868L123.944 10.383C123.899 10.3332 123.882 10.2644 123.899 10.1996L124.32 8.55711" stroke="#fff" stroke-width="0.5"/>
<path d="M110.196 27.9222L116.954 21.2478C117.031 21.1723 116.95 21.0458 116.849 21.0827L114.771 21.844C114.759 21.8483 114.748 21.855 114.739 21.8635L111.42 24.8432C111.41 24.8522 111.402 24.8632 111.396 24.8755L110.035 27.8089C109.988 27.91 110.117 28.0005 110.196 27.9222Z" stroke="#fff" stroke-width="0.5"/>
<path d="M101.212 17.916L108.574 11.914C108.657 11.8461 108.774 11.9394 108.727 12.0358L107.747 14.0203C107.741 14.0317 107.733 14.0419 107.724 14.0504L104.405 17.0301C104.395 17.0392 104.383 17.0461 104.37 17.0504L101.308 18.0882C101.202 18.124 101.126 17.9864 101.212 17.916Z" stroke="#fff" stroke-width="0.5"/>
<path d="M124.897 17.0652C124.907 17.0561 124.932 17.0334 124.979 17.0044C125.082 16.942 125.194 17.0181 125.274 17.0804C125.293 17.0955 125.311 17.1067 125.295 17.1348C125.197 17.3113 124.942 17.4106 124.835 17.5294C124.757 17.6164 124.653 17.7252 124.547 17.853C124.488 17.9234 124.449 18.0007 124.405 18.0587C124.356 18.1221 124.067 18.3899 123.654 18.7554C123.423 18.9604 123.299 19.0054 123.195 19.0627C123.096 19.0964 122.969 19.1185 122.875 19.1522C122.85 19.1606 122.821 19.1687 122.761 19.1754" stroke="#fff" stroke-linecap="round"/>
<path d="M114.426 4.63409C114.364 4.52446 114.255 4.38323 114.125 4.29359C113.856 4.10885 113.573 4.63618 113.398 4.77939C113.259 4.89266 113.092 5.01284 113.003 5.07839C112.981 5.09489 112.956 5.10732 112.799 5.24309C112.643 5.37887 112.356 5.63695 112.202 5.77921C111.993 5.97293 111.93 6.06515 111.858 6.1799C111.753 6.34764 111.728 6.48562 111.694 6.57121C111.674 6.67209 111.646 6.73357 111.632 6.77875C111.623 6.80025 111.613 6.81888 111.616 6.85335" stroke="#fff" stroke-linecap="round"/>
</svg>
