<svg xmlns="http://www.w3.org/2000/svg" width="305" height="150" viewBox="0 0 305 150" fill="none">
  <defs>
    <filter id="blur-filter" x="-20%" y="-20%" width="140%" height="140%">
      <feGaussianBlur in="SourceGraphic" stdDeviation="4" />
    </filter>
  </defs>
  
  <path d="M36.5 37L64.5 56.5L71 53.5L69 48.5L89 39.5L91.5 45L103.5 39.5L101.5 34.5L132 21.5L134 26.5L151.5 18L149 12L174 1.5L176.5 8L179 6.5L196.5 4.5L216 8.5L263.5 43L267 38L290 55L286.5 60L304 72.5V149H296.5L295 147.5L294 148.5H289L222.5 100L225 96.5L193 73L183 77L185 83L169.5 90.5L167 84L152 90.5L154.5 95.5L136.5 103L134.5 97.5L93.5 115.5L97 123.5L82 130L78 122L70.5 125.5L55.5 127L39 114L36.5 117.5L15.5 102L17.5 98.5L1.5 86L36.5 37Z" stroke="#fff" />
</svg> 