<svg width="244" height="218" viewBox="0 0 244 218" fill="none" xmlns="http://www.w3.org/2000/svg">
<path d="M223.016 168.777L222.386 169.33C220.752 170.766 218.262 170.598 216.835 168.958L216.564 168.647C214.595 166.383 210.977 166.756 209.511 169.374L207.514 172.937C206.529 174.696 204.197 175.144 202.63 173.875C200.774 172.371 197.984 173.315 197.423 175.637L197.374 175.84C197.175 176.663 196.675 177.381 195.972 177.853L195.202 178.371C193.168 179.738 192.775 182.569 194.359 184.438L194.562 184.678C196.125 186.522 195.62 189.335 193.513 190.521L193.29 190.646C191.152 191.849 190.781 194.773 192.548 196.473L192.766 196.682C193.577 197.462 193.909 198.616 193.635 199.707C193.096 201.859 194.899 203.876 197.097 203.579L197.295 203.553C199.259 203.288 201.005 204.815 201.005 206.797V207.934C201.005 210.392 203.077 212.342 205.532 212.193L205.668 212.185C207.023 212.102 208.341 212.651 209.237 213.672L209.286 213.726C210.975 215.651 213.921 215.799 215.796 214.055L218.145 211.87C219.39 210.711 221.362 210.877 222.396 212.227C223.838 214.109 226.808 213.542 227.457 211.262L227.82 209.983C228.353 208.11 230.513 207.246 232.19 208.236C233.959 209.279 236.228 208.257 236.619 206.241L236.95 204.534C237.133 203.588 237.695 202.758 238.505 202.237C240.825 200.742 240.612 197.284 238.125 196.086L238.005 196.028C235.815 194.973 235.275 192.096 236.934 190.319L239.235 187.852C241.238 185.705 240.937 182.294 238.588 180.53C237.445 179.672 236.73 178.36 236.627 176.934L236.592 176.459C236.404 173.847 234.354 171.755 231.747 171.513L230.624 171.409C229.531 171.307 228.563 170.663 228.047 169.695C227.058 167.838 224.597 167.389 223.016 168.777Z" stroke="#fff"/>
<path d="M222.55 177.671L222.285 177.174C221.561 175.811 219.755 175.482 218.596 176.501V176.501C217.6 177.377 216.082 177.275 215.212 176.274L215.047 176.084C213.848 174.703 211.641 174.93 210.748 176.527L209.53 178.705C208.93 179.778 207.508 180.051 206.554 179.276V179.276C205.423 178.359 203.723 178.934 203.381 180.349L203.35 180.478C203.229 180.979 202.924 181.417 202.496 181.706L202.027 182.021C200.787 182.857 200.546 184.584 201.512 185.727L201.637 185.874C202.59 187.001 202.282 188.716 200.997 189.441L200.862 189.517C199.558 190.253 199.331 192.037 200.409 193.075V193.075C200.985 193.631 201.221 194.452 201.027 195.229L200.385 197.793" stroke="#fff"/>
<path d="M221.039 207.05L221.412 207.244C222.437 207.773 223.687 207.208 223.966 206.089V206.089C224.205 205.128 225.182 204.545 226.142 204.791L226.324 204.838C227.648 205.177 228.908 204.1 228.778 202.739L228.601 200.883C228.514 199.968 229.272 199.196 230.187 199.267V199.267C231.272 199.35 232.073 198.274 231.682 197.259L231.646 197.167C231.507 196.807 231.508 196.408 231.649 196.049L231.803 195.656C232.21 194.616 231.624 193.452 230.545 193.16L230.405 193.122C229.341 192.835 228.801 191.65 229.283 190.658L229.334 190.554C229.823 189.548 229.204 188.355 228.1 188.175V188.175C227.51 188.078 227.016 187.674 226.806 187.114L226.11 185.266" stroke="#fff"/>
<path d="M170.016 130.777L169.386 131.33C167.752 132.766 165.262 132.598 163.835 130.958L163.564 130.647C161.595 128.383 157.977 128.756 156.511 131.374L154.514 134.937C153.529 136.696 151.197 137.144 149.63 135.875C147.774 134.371 144.984 135.315 144.423 137.637L144.374 137.84C144.175 138.663 143.675 139.381 142.972 139.853L142.202 140.371C140.168 141.738 139.775 144.569 141.359 146.438L141.562 146.678C143.125 148.522 142.62 151.335 140.513 152.521L140.29 152.646C138.152 153.849 137.781 156.773 139.548 158.473L139.766 158.682C140.577 159.462 140.909 160.616 140.635 161.707C140.096 163.859 141.899 165.876 144.097 165.579L144.295 165.553C146.259 165.288 148.005 166.815 148.005 168.797V169.934C148.005 172.392 150.077 174.342 152.532 174.193L152.668 174.185C154.023 174.102 155.341 174.651 156.237 175.672L156.286 175.726C157.975 177.651 160.921 177.799 162.796 176.055L165.145 173.87C166.39 172.711 168.362 172.877 169.396 174.227C170.838 176.109 173.808 175.542 174.457 173.262L174.82 171.983C175.353 170.11 177.513 169.246 179.19 170.236C180.959 171.279 183.228 170.257 183.619 168.241L183.95 166.534C184.133 165.588 184.695 164.758 185.505 164.237C187.825 162.742 187.612 159.284 185.125 158.086L185.005 158.028C182.815 156.973 182.275 154.096 183.934 152.319L186.235 149.852C188.238 147.705 187.937 144.294 185.588 142.53C184.445 141.672 183.73 140.36 183.627 138.934L183.592 138.459C183.404 135.847 181.354 133.755 178.747 133.513L177.624 133.409C176.531 133.307 175.563 132.663 175.047 131.695C174.058 129.838 171.597 129.389 170.016 130.777Z" stroke="#fff"/>
<path d="M169.55 139.671L169.285 139.174C168.561 137.811 166.755 137.482 165.596 138.501V138.501C164.6 139.377 163.082 139.275 162.212 138.274L162.047 138.084C160.848 136.703 158.641 136.93 157.748 138.527L156.53 140.705C155.93 141.778 154.508 142.051 153.554 141.276V141.276C152.423 140.359 150.723 140.934 150.381 142.349L150.35 142.478C150.229 142.979 149.924 143.417 149.496 143.706L149.027 144.021C147.787 144.857 147.546 146.584 148.512 147.727L148.637 147.874C149.59 149.001 149.282 150.716 147.997 151.441L147.862 151.517C146.558 152.253 146.331 154.037 147.409 155.075V155.075C147.985 155.631 148.221 156.452 148.027 157.229L147.385 159.793" stroke="#fff"/>
<path d="M168.039 169.05L168.412 169.244C169.437 169.773 170.687 169.208 170.966 168.089V168.089C171.205 167.128 172.182 166.545 173.142 166.791L173.324 166.838C174.648 167.177 175.908 166.1 175.778 164.739L175.601 162.883C175.514 161.968 176.272 161.196 177.187 161.267V161.267C178.272 161.35 179.073 160.274 178.682 159.259L178.646 159.167C178.507 158.807 178.508 158.408 178.649 158.049L178.803 157.656C179.21 156.616 178.624 155.452 177.545 155.16L177.405 155.122C176.341 154.835 175.801 153.65 176.283 152.658L176.334 152.554C176.823 151.548 176.204 150.355 175.1 150.175V150.175C174.51 150.078 174.016 149.674 173.806 149.114L173.11 147.266" stroke="#fff"/>
<path d="M127.016 86.7772L126.386 87.3304C124.752 88.7657 122.262 88.5985 120.835 86.9576L120.564 86.6467C118.595 84.3833 114.977 84.7561 113.511 87.3736L111.514 90.9374C110.529 92.6962 108.197 93.1438 106.63 91.8748C104.774 90.3711 101.984 91.3151 101.423 93.637L101.374 93.8403C101.175 94.6631 100.675 95.3813 99.9721 95.8535L99.2018 96.3711C97.1684 97.7376 96.775 100.569 98.3587 102.438L98.5618 102.678C100.125 104.522 99.6201 107.335 97.513 108.521L97.2896 108.646C95.1525 109.849 94.7806 112.773 96.5485 114.473L96.7664 114.682C97.5773 115.462 97.9088 116.616 97.6352 117.707C97.0958 119.859 98.8989 121.876 101.097 121.579L101.295 121.553C103.259 121.288 105.005 122.815 105.005 124.797V125.934C105.005 128.392 107.077 130.342 109.532 130.193L109.668 130.185C111.023 130.102 112.341 130.651 113.237 131.672L113.286 131.726C114.975 133.651 117.921 133.799 119.796 132.055L122.145 129.87C123.39 128.711 125.362 128.877 126.396 130.227C127.838 132.109 130.808 131.542 131.457 129.262L131.82 127.983C132.353 126.11 134.513 125.246 136.19 126.236C137.959 127.279 140.228 126.257 140.619 124.241L140.95 122.534C141.133 121.588 141.695 120.758 142.505 120.237C144.825 118.742 144.612 115.284 142.125 114.086L142.005 114.028C139.815 112.973 139.275 110.096 140.934 108.319L143.235 105.852C145.238 103.705 144.937 100.294 142.588 98.5301C141.445 97.6717 140.73 96.3601 140.627 94.9341L140.592 94.459C140.404 91.8474 138.354 89.7552 135.747 89.5131L134.624 89.4088C133.531 89.3073 132.563 88.6631 132.047 87.6945C131.058 85.8381 128.597 85.3892 127.016 86.7772Z" stroke="#fff"/>
<path d="M126.55 95.6712L126.285 95.1737C125.561 93.8111 123.755 93.4819 122.596 94.5012V94.5012C121.6 95.3772 120.082 95.2753 119.212 94.274L119.047 94.0838C117.848 92.7027 115.641 92.93 114.748 94.5265L113.53 96.705C112.93 97.7778 111.508 98.0507 110.554 97.2761V97.2761C109.423 96.3586 107.723 96.9337 107.381 98.349L107.35 98.4779C107.229 98.9795 106.924 99.4175 106.496 99.7056L106.027 100.021C104.787 100.857 104.546 102.584 105.512 103.727L105.637 103.874C106.59 105.001 106.282 106.716 104.997 107.441L104.862 107.517C103.558 108.253 103.331 110.037 104.409 111.075V111.075C104.985 111.631 105.221 112.452 105.027 113.229L104.385 115.793" stroke="#fff"/>
<path d="M125.039 125.05L125.412 125.244C126.437 125.773 127.687 125.208 127.966 124.089V124.089C128.205 123.128 129.182 122.545 130.142 122.791L130.324 122.838C131.648 123.177 132.908 122.1 132.778 120.739L132.601 118.883C132.514 117.968 133.272 117.196 134.187 117.267V117.267C135.272 117.35 136.073 116.274 135.682 115.259L135.646 115.167C135.507 114.807 135.508 114.408 135.649 114.049L135.803 113.656C136.21 112.616 135.624 111.452 134.545 111.16L134.405 111.122C133.341 110.835 132.801 109.65 133.283 108.658L133.334 108.554C133.823 107.548 133.204 106.355 132.1 106.175V106.175C131.51 106.078 131.016 105.674 130.806 105.114L130.11 103.266" stroke="#fff"/>
<path d="M80.0162 46.7772L79.3863 47.3304C77.752 48.7657 75.2623 48.5985 73.8345 46.9576L73.564 46.6467C71.5946 44.3833 67.9769 44.7561 66.5105 47.3736L64.5141 50.9374C63.5287 52.6962 61.1968 53.1438 59.6303 51.8748C57.7742 50.3711 54.9844 51.3151 54.4229 53.637L54.3737 53.8403C54.1747 54.6631 53.6746 55.3813 52.9721 55.8535L52.2018 56.3711C50.1684 57.7376 49.775 60.5686 51.3587 62.4378L51.5618 62.6776C53.1249 64.5224 52.6201 67.3346 50.513 68.5207L50.2896 68.6465C48.1525 69.8494 47.7806 72.773 49.5485 74.4727L49.7664 74.6822C50.5773 75.4618 50.9088 76.6158 50.6352 77.707C50.0958 79.8588 51.8989 81.8756 54.0974 81.5795L54.2954 81.5528C56.2589 81.2884 58.0052 82.8153 58.0052 84.7965V85.9335C58.0052 88.3921 60.0775 90.3421 62.5315 90.1928L62.6677 90.1845C64.0234 90.102 65.3412 90.6509 66.2374 91.6715L66.2856 91.7264C67.9754 93.6507 70.9208 93.7993 72.7958 92.055L75.1448 89.8697C76.3899 88.7114 78.3619 88.8771 79.3961 90.227C80.8379 92.1087 83.8082 91.5424 84.4566 89.2623L84.8204 87.983C85.353 86.1099 87.5129 85.2462 89.1902 86.2357C90.9592 87.2793 93.2283 86.2571 93.619 84.2407L93.9497 82.534C94.133 81.5881 94.6947 80.7582 95.5048 80.2366C97.8251 78.7424 97.6118 75.2836 95.1255 74.0858L95.0052 74.0278C92.8147 72.9726 92.2748 70.0963 93.9336 68.3185L96.2346 65.8525C98.2385 63.7048 97.9374 60.2936 95.5884 58.5301C94.445 57.6717 93.7295 56.3601 93.6267 54.9341L93.5924 54.459C93.404 51.8474 91.3544 49.7552 88.7472 49.5131L87.6241 49.4088C86.5314 49.3073 85.563 48.6631 85.0471 47.6945C84.0582 45.8381 81.5966 45.3892 80.0162 46.7772Z" stroke="#fff"/>
<path d="M79.55 55.6712L79.2855 55.1737C78.561 53.8111 76.7545 53.4819 75.5959 54.5012V54.5012C74.6003 55.3772 73.0818 55.2753 72.2122 54.274L72.047 54.0838C70.8475 52.7027 68.6412 52.93 67.7484 54.5265L66.5303 56.705C65.9304 57.7778 64.5082 58.0507 63.5538 57.2761V57.2761C62.4234 56.3586 60.7225 56.9337 60.3808 58.349L60.3497 58.4779C60.2287 58.9795 59.9241 59.4175 59.4961 59.7056L59.0274 60.0212C57.7866 60.8566 57.5465 62.5845 58.5123 63.7265L58.6373 63.8743C59.59 65.0008 59.282 66.7163 57.9968 67.4411L57.8617 67.5173C56.5576 68.2527 56.3306 70.0369 57.4088 71.0755V71.0755C57.9855 71.6308 58.2211 72.4521 58.0268 73.2287L57.3852 75.7926" stroke="#fff"/>
<path d="M78.0385 85.0503L78.4125 85.2437C79.4367 85.7733 80.6869 85.208 80.9658 84.0892V84.0892C81.2054 83.1277 82.182 82.5451 83.1419 82.791L83.3242 82.8377C84.6483 83.1768 85.9077 82.0996 85.7779 80.739L85.6009 78.8825C85.5137 77.9683 86.2718 77.1963 87.1875 77.2668V77.2668C88.2721 77.3503 89.073 76.2741 88.6816 75.2591L88.646 75.1666C88.5073 74.8069 88.5083 74.4083 88.6489 74.0493L88.8029 73.6562C89.2104 72.6156 88.6238 71.4516 87.5449 71.1602L87.4053 71.1224C86.3411 70.8349 85.8014 69.6497 86.2833 68.6582L86.334 68.5539C86.8229 67.5479 86.2043 66.3548 85.1003 66.1747V66.1747C84.5099 66.0784 84.0161 65.6738 83.8055 65.114L83.1104 63.2656" stroke="#fff"/>
<path d="M34.0162 4.7772L33.3863 5.33041C31.752 6.76567 29.2623 6.59848 27.8345 4.95761L27.564 4.6467C25.5946 2.38329 21.9769 2.75614 20.5105 5.37363L18.5141 8.93737C17.5287 10.6962 15.1968 11.1438 13.6303 9.87476C11.7742 8.37106 8.98442 9.31513 8.42286 11.637L8.37368 11.8403C8.1747 12.6631 7.67462 13.3813 6.97209 13.8535L6.20184 14.3711C4.16844 15.7376 3.77501 18.5686 5.35872 20.4378L5.56184 20.6776C7.1249 22.5224 6.62013 25.3346 4.51303 26.5207L4.28958 26.6465C2.15248 27.8494 1.78062 30.773 3.5485 32.4727L3.76638 32.6822C4.57729 33.4618 4.90878 34.6158 4.63523 35.707C4.09577 37.8588 5.89885 39.8756 8.0974 39.5795L8.29539 39.5528C10.2589 39.2884 12.0052 40.8153 12.0052 42.7965V43.9335C12.0052 46.3921 14.0775 48.3421 16.5315 48.1928L16.6677 48.1845C18.0234 48.102 19.3412 48.6509 20.2374 49.6715L20.2856 49.7264C21.9754 51.6507 24.9208 51.7993 26.7958 50.055L29.1448 47.8697C30.3899 46.7114 32.3619 46.8771 33.3961 48.227C34.8379 50.1087 37.8082 49.5424 38.4566 47.2623L38.8204 45.983C39.353 44.1099 41.5129 43.2462 43.1902 44.2357C44.9592 45.2793 47.2283 44.2571 47.619 42.2407L47.9497 40.534C48.133 39.5881 48.6947 38.7582 49.5048 38.2366C51.8251 36.7424 51.6118 33.2836 49.1255 32.0858L49.0052 32.0278C46.8147 30.9726 46.2748 28.0963 47.9336 26.3185L50.2346 23.8525C52.2385 21.7048 51.9374 18.2936 49.5884 16.5301C48.445 15.6717 47.7295 14.3601 47.6267 12.9341L47.5924 12.459C47.404 9.84741 45.3544 7.75517 42.7472 7.51306L41.6241 7.40876C40.5314 7.30729 39.563 6.6631 39.0471 5.69452C38.0582 3.83807 35.5966 3.38923 34.0162 4.7772Z" stroke="#fff"/>
<path d="M33.55 13.6712L33.2855 13.1737C32.561 11.8111 30.7545 11.4819 29.5959 12.5012V12.5012C28.6003 13.3772 27.0818 13.2753 26.2122 12.274L26.047 12.0838C24.8475 10.7027 22.6412 10.93 21.7484 12.5265L20.5303 14.705C19.9304 15.7778 18.5082 16.0507 17.5538 15.2761V15.2761C16.4234 14.3586 14.7225 14.9337 14.3808 16.349L14.3497 16.4779C14.2287 16.9795 13.9241 17.4175 13.4961 17.7056L13.0274 18.0212C11.7866 18.8566 11.5465 20.5845 12.5123 21.7265L12.6373 21.8743C13.59 23.0008 13.282 24.7163 11.9968 25.4411L11.8617 25.5173C10.5576 26.2527 10.3306 28.0369 11.4088 29.0755V29.0755C11.9855 29.6308 12.2211 30.4521 12.0268 31.2287L11.3852 33.7926" stroke="#fff"/>
<path d="M32.0385 43.0503L32.4125 43.2437C33.4367 43.7733 34.6869 43.208 34.9658 42.0892V42.0892C35.2054 41.1277 36.182 40.5451 37.1419 40.791L37.3242 40.8377C38.6483 41.1768 39.9077 40.0996 39.7779 38.739L39.6009 36.8825C39.5137 35.9683 40.2718 35.1963 41.1875 35.2668V35.2668C42.2721 35.3503 43.073 34.2741 42.6816 33.2591L42.646 33.1666C42.5073 32.8069 42.5083 32.4083 42.6489 32.0493L42.8029 31.6562C43.2104 30.6156 42.6238 29.4516 41.5449 29.1602L41.4053 29.1224C40.3411 28.8349 39.8014 27.6497 40.2833 26.6582L40.334 26.5539C40.8229 25.5479 40.2043 24.3548 39.1003 24.1747V24.1747C38.5099 24.0784 38.0161 23.6738 37.8055 23.114L37.1104 21.2656" stroke="#fff"/>
</svg>
