<svg xmlns="http://www.w3.org/2000/svg" width="98" height="89" viewBox="0 0 98 89" fill="none">
  <path d="M34.0162 4.7772L33.3863 5.33041C31.752 6.76567 29.2623 6.59848 27.8345 4.95761L27.564 4.6467C25.5946 2.38329 21.9769 2.75614 20.5105 5.37363L18.5141 8.93737C17.5287 10.6962 15.1968 11.1438 13.6303 9.87476C11.7742 8.37106 8.98442 9.31513 8.42286 11.637L8.37368 11.8403C8.1747 12.6631 7.67462 13.3813 6.97209 13.8535L6.20184 14.3711C4.16844 15.7376 3.77501 18.5686 5.35872 20.4378L5.56184 20.6776C7.1249 22.5224 6.62013 25.3346 4.51303 26.5207L4.28958 26.6465C2.15248 27.8494 1.78062 30.773 3.5485 32.4727L3.76638 32.6822C4.57729 33.4618 4.90878 34.6158 4.63523 35.707C4.09577 37.8588 5.89885 39.8756 8.0974 39.5795L8.29539 39.5528C10.2589 39.2884 12.0052 40.8153 12.0052 42.7965V43.9335C12.0052 46.3921 14.0775 48.3421 16.5315 48.1928L16.6677 48.1845C18.0234 48.102 19.3412 48.6509 20.2374 49.6715L20.2856 49.7264C21.9754 51.6507 24.9208 51.7993 26.7958 50.055L29.1448 47.8697C30.3899 46.7114 32.3619 46.8771 33.3961 48.227C34.8379 50.1087 37.8082 49.5424 38.4566 47.2623L38.8204 45.983C39.353 44.1099 41.5129 43.2462 43.1902 44.2357C44.9592 45.2793 47.2283 44.2571 47.619 42.2407L47.9497 40.534C48.133 39.5881 48.6947 38.7582 49.5048 38.2366C51.8251 36.7424 51.6118 33.2836 49.1255 32.0858L49.0052 32.0278C46.8147 30.9726 46.2748 28.0963 47.9336 26.3185L50.2346 23.8525C52.2385 21.7048 51.9374 18.2936 49.5884 16.5301C48.445 15.6717 47.7295 14.3601 47.6267 12.9341L47.5924 12.459C47.404 9.84741 45.3544 7.75517 42.7472 7.51306L41.6241 7.40876C40.5314 7.30729 39.563 6.6631 39.0471 5.69452C38.0582 3.83807 35.5966 3.38923 34.0162 4.7772Z" stroke="#109b00"/>
  <path d="M33.55 13.6712L33.2855 13.1737C32.561 11.8111 30.7545 11.4819 29.5959 12.5012V12.5012C28.6003 13.3772 27.0818 13.2753 26.2122 12.274L26.047 12.0838C24.8475 10.7027 22.6412 10.93 21.7484 12.5265L20.5303 14.705C19.9304 15.7778 18.5082 16.0507 17.5538 15.2761V15.2761C16.4234 14.3586 14.7225 14.9337 14.3808 16.349L14.3497 16.4779C14.2287 16.9795 13.9241 17.4175 13.4961 17.7056L13.0274 18.0212C11.7866 18.8566 11.5465 20.5845 12.5123 21.7265L12.6373 21.8743C13.59 23.0008 13.282 24.7163 11.9968 25.4411L11.8617 25.5173C10.5576 26.2527 10.3306 28.0369 11.4088 29.0755V29.0755C11.9855 29.6308 12.2211 30.4521 12.0268 31.2287L11.3852 33.7926" stroke="#109b00"/>
  <path d="M32.0385 43.0503L32.4125 43.2437C33.4367 43.7733 34.6869 43.208 34.9658 42.0892V42.0892C35.2054 41.1277 36.182 40.5451 37.1419 40.791L37.3242 40.8377C38.6483 41.1768 39.9077 40.0996 39.7779 38.739L39.6009 36.8825C39.5137 35.9683 40.2718 35.1963 41.1875 35.2668V35.2668C42.2721 35.3503 43.073 34.2741 42.6816 33.2591L42.646 33.1666C42.5073 32.8069 42.5083 32.4083 42.6489 32.0493L42.8029 31.6562C43.2104 30.6156 42.6238 29.4516 41.5449 29.1602L41.4053 29.1224C40.3411 28.8349 39.8014 27.6497 40.2833 26.6582L40.334 26.5539C40.8229 25.5479 40.2043 24.3548 39.1003 24.1747V24.1747C38.5099 24.0784 38.0161 23.6738 37.8055 23.114L37.1104 21.2656" stroke="#109b00"/>
  <path d="M77.0162 39.7772L76.3863 40.3304C74.752 41.7657 72.2623 41.5985 70.8345 39.9576L70.564 39.6467C68.5946 37.3833 64.9769 37.7561 63.5105 40.3736L61.5141 43.9374C60.5287 45.6962 58.1968 46.1438 56.6303 44.8748C54.7742 43.3711 51.9844 44.3151 51.4229 46.637L51.3737 46.8403C51.1747 47.6631 50.6746 48.3813 49.9721 48.8535L49.2018 49.3711C47.1684 50.7376 46.775 53.5686 48.3587 55.4378L48.5618 55.6776C50.1249 57.5224 49.6201 60.3346 47.513 61.5207L47.2896 61.6465C45.1525 62.8494 44.7806 65.773 46.5485 67.4727L46.7664 67.6822C47.5773 68.4618 47.9088 69.6158 47.6352 70.707C47.0958 72.8588 48.8989 74.8756 51.0974 74.5795L51.2954 74.5528C53.2589 74.2884 55.0052 75.8153 55.0052 77.7965V78.9335C55.0052 81.3921 57.0775 83.3421 59.5315 83.1928L59.6677 83.1845C61.0234 83.102 62.3412 83.6509 63.2374 84.6715L63.2856 84.7264C64.9754 86.6507 67.9208 86.7993 69.7958 85.055L72.1448 82.8697C73.3899 81.7114 75.3619 81.8771 76.3961 83.227C77.8379 85.1087 80.8082 84.5424 81.4566 82.2623L81.8204 80.983C82.353 79.1099 84.5129 78.2462 86.1902 79.2357C87.9592 80.2793 90.2283 79.2571 90.619 77.2407L90.9497 75.534C91.133 74.5881 91.6947 73.7582 92.5048 73.2366C94.8251 71.7424 94.6118 68.2836 92.1255 67.0858L92.0052 67.0278C89.8147 65.9726 89.2748 63.0963 90.9336 61.3185L93.2346 58.8525C95.2385 56.7048 94.9374 53.2936 92.5884 51.5301C91.445 50.6717 90.7295 49.3601 90.6267 47.9341L90.5924 47.459C90.404 44.8474 88.3544 42.7552 85.7472 42.5131L84.6241 42.4088C83.5314 42.3073 82.563 41.6631 82.0471 40.6945C81.0582 38.8381 78.5966 38.3892 77.0162 39.7772Z" stroke="#109b00"/>
  <path d="M76.55 48.6712L76.2855 48.1737C75.561 46.8111 73.7545 46.4819 72.5959 47.5012V47.5012C71.6003 48.3772 70.0818 48.2753 69.2122 47.274L69.047 47.0838C67.8475 45.7027 65.6412 45.93 64.7484 47.5265L63.5303 49.705C62.9304 50.7778 61.5082 51.0507 60.5538 50.2761V50.2761C59.4234 49.3586 57.7225 49.9337 57.3808 51.349L57.3497 51.4779C57.2287 51.9795 56.9241 52.4175 56.4961 52.7056L56.0274 53.0212C54.7866 53.8566 54.5465 55.5845 55.5123 56.7265L55.6373 56.8743C56.59 58.0008 56.282 59.7163 54.9968 60.4411L54.8617 60.5173C53.5576 61.2527 53.3306 63.0369 54.4088 64.0755V64.0755C54.9855 64.6308 55.2211 65.4521 55.0268 66.2287L54.3852 68.7926" stroke="#109b00"/>
  <path d="M75.0385 78.0503L75.4125 78.2437C76.4367 78.7733 77.6869 78.208 77.9658 77.0892V77.0892C78.2054 76.1277 79.182 75.5451 80.1419 75.791L80.3242 75.8377C81.6483 76.1768 82.9077 75.0996 82.7779 73.739L82.6009 71.8825C82.5137 70.9683 83.2718 70.1963 84.1875 70.2668V70.2668C85.2721 70.3503 86.073 69.2741 85.6816 68.2591L85.646 68.1666C85.5073 67.8069 85.5083 67.4083 85.6489 67.0493L85.8029 66.6562C86.2104 65.6156 85.6238 64.4516 84.5449 64.1602L84.4053 64.1224C83.3411 63.8349 82.8014 62.6497 83.2833 61.6582L83.334 61.5539C83.8229 60.5479 83.2043 59.3548 82.1003 59.1747V59.1747C81.5099 59.0784 81.0161 58.6738 80.8055 58.114L80.1104 56.2656" stroke="#109b00"/>
</svg>