<svg width="171" height="228" viewBox="0 0 171 228" fill="none" xmlns="http://www.w3.org/2000/svg">
<path d="M34.0162 178.777L33.3863 179.33C31.752 180.766 29.2623 180.598 27.8345 178.958L27.564 178.647C25.5946 176.383 21.9769 176.756 20.5105 179.374L18.5141 182.937C17.5287 184.696 15.1968 185.144 13.6303 183.875C11.7742 182.371 8.98442 183.315 8.42286 185.637L8.37368 185.84C8.1747 186.663 7.67462 187.381 6.97209 187.853L6.20184 188.371C4.16844 189.738 3.77501 192.569 5.35872 194.438L5.56184 194.678C7.1249 196.522 6.62013 199.335 4.51303 200.521L4.28958 200.646C2.15248 201.849 1.78062 204.773 3.5485 206.473L3.76638 206.682C4.57729 207.462 4.90878 208.616 4.63523 209.707C4.09577 211.859 5.89885 213.876 8.0974 213.579L8.29539 213.553C10.2589 213.288 12.0052 214.815 12.0052 216.797V217.934C12.0052 220.392 14.0775 222.342 16.5315 222.193L16.6677 222.185C18.0234 222.102 19.3412 222.651 20.2374 223.672L20.2856 223.726C21.9754 225.651 24.9208 225.799 26.7958 224.055L29.1448 221.87C30.3899 220.711 32.3619 220.877 33.3961 222.227C34.8379 224.109 37.8082 223.542 38.4566 221.262L38.8204 219.983C39.353 218.11 41.5129 217.246 43.1902 218.236C44.9592 219.279 47.2283 218.257 47.619 216.241L47.9497 214.534C48.133 213.588 48.6947 212.758 49.5048 212.237C51.8251 210.742 51.6118 207.284 49.1255 206.086L49.0052 206.028C46.8147 204.973 46.2748 202.096 47.9336 200.319L50.2346 197.852C52.2385 195.705 51.9374 192.294 49.5884 190.53C48.445 189.672 47.7295 188.36 47.6267 186.934L47.5924 186.459C47.404 183.847 45.3544 181.755 42.7472 181.513L41.6241 181.409C40.5314 181.307 39.563 180.663 39.0471 179.695C38.0582 177.838 35.5966 177.389 34.0162 178.777Z" stroke="#109b00"/>
<path d="M33.55 187.671L33.2855 187.174C32.561 185.811 30.7545 185.482 29.5959 186.501V186.501C28.6003 187.377 27.0818 187.275 26.2122 186.274L26.047 186.084C24.8475 184.703 22.6412 184.93 21.7484 186.527L20.5303 188.705C19.9304 189.778 18.5082 190.051 17.5538 189.276V189.276C16.4234 188.359 14.7225 188.934 14.3808 190.349L14.3497 190.478C14.2287 190.979 13.9241 191.417 13.4961 191.706L13.0274 192.021C11.7866 192.857 11.5465 194.584 12.5123 195.727L12.6373 195.874C13.59 197.001 13.282 198.716 11.9968 199.441L11.8617 199.517C10.5576 200.253 10.3306 202.037 11.4088 203.075V203.075C11.9855 203.631 12.2211 204.452 12.0268 205.229L11.3852 207.793" stroke="#109b00"/>
<path d="M32.0385 217.05L32.4125 217.244C33.4367 217.773 34.6869 217.208 34.9658 216.089V216.089C35.2054 215.128 36.182 214.545 37.1419 214.791L37.3242 214.838C38.6483 215.177 39.9077 214.1 39.7779 212.739L39.6009 210.882C39.5137 209.968 40.2718 209.196 41.1875 209.267V209.267C42.2721 209.35 43.073 208.274 42.6816 207.259L42.646 207.167C42.5073 206.807 42.5083 206.408 42.6489 206.049L42.8029 205.656C43.2104 204.616 42.6238 203.452 41.5449 203.16L41.4053 203.122C40.3411 202.835 39.8014 201.65 40.2833 200.658L40.334 200.554C40.8229 199.548 40.2043 198.355 39.1003 198.175V198.175C38.5099 198.078 38.0161 197.674 37.8055 197.114L37.1104 195.266" stroke="#109b00"/>
<path d="M111.016 67.7772L110.386 68.3304C108.752 69.7657 106.262 69.5985 104.835 67.9576L104.564 67.6467C102.595 65.3833 98.9769 65.7561 97.5105 68.3736L95.5141 71.9374C94.5287 73.6962 92.1968 74.1438 90.6303 72.8748C88.7742 71.3711 85.9844 72.3151 85.4229 74.637L85.3737 74.8403C85.1747 75.6631 84.6746 76.3813 83.9721 76.8535L83.2018 77.3711C81.1684 78.7376 80.775 81.5686 82.3587 83.4378L82.5618 83.6776C84.1249 85.5224 83.6201 88.3346 81.513 89.5207L81.2896 89.6465C79.1525 90.8494 78.7806 93.773 80.5485 95.4727L80.7664 95.6822C81.5773 96.4618 81.9088 97.6158 81.6352 98.707C81.0958 100.859 82.8989 102.876 85.0974 102.579L85.2954 102.553C87.2589 102.288 89.0052 103.815 89.0052 105.797V106.934C89.0052 109.392 91.0775 111.342 93.5315 111.193L93.6677 111.185C95.0234 111.102 96.3412 111.651 97.2374 112.672L97.2856 112.726C98.9754 114.651 101.921 114.799 103.796 113.055L106.145 110.87C107.39 109.711 109.362 109.877 110.396 111.227C111.838 113.109 114.808 112.542 115.457 110.262L115.82 108.983C116.353 107.11 118.513 106.246 120.19 107.236C121.959 108.279 124.228 107.257 124.619 105.241L124.95 103.534C125.133 102.588 125.695 101.758 126.505 101.237C128.825 99.7424 128.612 96.2836 126.125 95.0858L126.005 95.0278C123.815 93.9726 123.275 91.0963 124.934 89.3185L127.235 86.8525C129.238 84.7048 128.937 81.2936 126.588 79.5301C125.445 78.6717 124.73 77.3601 124.627 75.9341L124.592 75.459C124.404 72.8474 122.354 70.7552 119.747 70.5131L118.624 70.4088C117.531 70.3073 116.563 69.6631 116.047 68.6945C115.058 66.8381 112.597 66.3892 111.016 67.7772Z" stroke="#109b00"/>
<path d="M110.55 76.6712L110.285 76.1737C109.561 74.8111 107.755 74.4819 106.596 75.5012V75.5012C105.6 76.3772 104.082 76.2753 103.212 75.274L103.047 75.0838C101.848 73.7027 99.6412 73.93 98.7484 75.5265L97.5303 77.705C96.9304 78.7778 95.5082 79.0507 94.5538 78.2761V78.2761C93.4234 77.3586 91.7225 77.9337 91.3808 79.349L91.3497 79.4779C91.2287 79.9795 90.9241 80.4175 90.4961 80.7056L90.0274 81.0212C88.7866 81.8566 88.5465 83.5845 89.5123 84.7265L89.6373 84.8743C90.59 86.0008 90.282 87.7163 88.9968 88.4411L88.8617 88.5173C87.5576 89.2527 87.3306 91.0369 88.4088 92.0755V92.0755C88.9855 92.6308 89.2211 93.4521 89.0268 94.2287L88.3852 96.7926" stroke="#109b00"/>
<path d="M109.039 106.05L109.412 106.244C110.437 106.773 111.687 106.208 111.966 105.089V105.089C112.205 104.128 113.182 103.545 114.142 103.791L114.324 103.838C115.648 104.177 116.908 103.1 116.778 101.739L116.601 99.8825C116.514 98.9683 117.272 98.1963 118.187 98.2668V98.2668C119.272 98.3503 120.073 97.2741 119.682 96.2591L119.646 96.1666C119.507 95.8069 119.508 95.4083 119.649 95.0493L119.803 94.6562C120.21 93.6156 119.624 92.4516 118.545 92.1602L118.405 92.1224C117.341 91.8349 116.801 90.6497 117.283 89.6582L117.334 89.5539C117.823 88.5479 117.204 87.3548 116.1 87.1747V87.1747C115.51 87.0784 115.016 86.6738 114.806 86.114L114.11 84.2656" stroke="#109b00"/>
<path d="M150.016 4.7772L149.386 5.33041C147.752 6.76567 145.262 6.59848 143.835 4.95761L143.564 4.6467C141.595 2.38329 137.977 2.75614 136.511 5.37363L134.514 8.93737C133.529 10.6962 131.197 11.1438 129.63 9.87476C127.774 8.37106 124.984 9.31513 124.423 11.637L124.374 11.8403C124.175 12.6631 123.675 13.3813 122.972 13.8535L122.202 14.3711C120.168 15.7376 119.775 18.5686 121.359 20.4378L121.562 20.6776C123.125 22.5224 122.62 25.3346 120.513 26.5207L120.29 26.6465C118.152 27.8494 117.781 30.773 119.548 32.4727L119.766 32.6822C120.577 33.4618 120.909 34.6158 120.635 35.707C120.096 37.8588 121.899 39.8756 124.097 39.5795L124.295 39.5528C126.259 39.2884 128.005 40.8153 128.005 42.7965V43.9335C128.005 46.3921 130.077 48.3421 132.532 48.1928L132.668 48.1845C134.023 48.102 135.341 48.6509 136.237 49.6715L136.286 49.7264C137.975 51.6507 140.921 51.7993 142.796 50.055L145.145 47.8697C146.39 46.7114 148.362 46.8771 149.396 48.227C150.838 50.1087 153.808 49.5424 154.457 47.2623L154.82 45.983C155.353 44.1099 157.513 43.2462 159.19 44.2357C160.959 45.2793 163.228 44.2571 163.619 42.2407L163.95 40.534C164.133 39.5881 164.695 38.7582 165.505 38.2366C167.825 36.7424 167.612 33.2836 165.125 32.0858L165.005 32.0278C162.815 30.9726 162.275 28.0963 163.934 26.3185L166.235 23.8525C168.238 21.7048 167.937 18.2936 165.588 16.5301C164.445 15.6717 163.73 14.3601 163.627 12.9341L163.592 12.459C163.404 9.84741 161.354 7.75517 158.747 7.51306L157.624 7.40876C156.531 7.30729 155.563 6.6631 155.047 5.69452C154.058 3.83807 151.597 3.38923 150.016 4.7772Z" stroke="#109b00"/>
<path d="M149.55 13.6712L149.285 13.1737C148.561 11.8111 146.755 11.4819 145.596 12.5012V12.5012C144.6 13.3772 143.082 13.2753 142.212 12.274L142.047 12.0838C140.848 10.7027 138.641 10.93 137.748 12.5265L136.53 14.705C135.93 15.7778 134.508 16.0507 133.554 15.2761V15.2761C132.423 14.3586 130.723 14.9337 130.381 16.349L130.35 16.4779C130.229 16.9795 129.924 17.4175 129.496 17.7056L129.027 18.0212C127.787 18.8566 127.546 20.5845 128.512 21.7265L128.637 21.8743C129.59 23.0008 129.282 24.7163 127.997 25.4411L127.862 25.5173C126.558 26.2527 126.331 28.0369 127.409 29.0755V29.0755C127.985 29.6308 128.221 30.4521 128.027 31.2287L127.385 33.7926" stroke="#109b00"/>
<path d="M148.039 43.0503L148.412 43.2437C149.437 43.7733 150.687 43.208 150.966 42.0892V42.0892C151.205 41.1277 152.182 40.5451 153.142 40.791L153.324 40.8377C154.648 41.1768 155.908 40.0996 155.778 38.739L155.601 36.8825C155.514 35.9683 156.272 35.1963 157.187 35.2668V35.2668C158.272 35.3503 159.073 34.2741 158.682 33.2591L158.646 33.1666C158.507 32.8069 158.508 32.4083 158.649 32.0493L158.803 31.6562C159.21 30.6156 158.624 29.4516 157.545 29.1602L157.405 29.1224C156.341 28.8349 155.801 27.6497 156.283 26.6582L156.334 26.5539C156.823 25.5479 156.204 24.3548 155.1 24.1747V24.1747C154.51 24.0784 154.016 23.6738 153.806 23.114L153.11 21.2656" stroke="#109b00"/>
</svg>
